<svg xmlns="http://www.w3.org/2000/svg" xmlns:xlink="http://www.w3.org/1999/xlink" width="500" zoomAndPan="magnify" viewBox="0 0 375 374.999991" height="500" preserveAspectRatio="xMidYMid meet" version="1.0"><defs><g/><clipPath id="aa50d636f1"><path d="M 8.109375 116.371094 L 165.609375 116.371094 L 165.609375 250.621094 L 8.109375 250.621094 Z M 8.109375 116.371094 " clip-rule="nonzero"/></clipPath></defs><rect x="-37.5" width="450" fill="#ffffff" y="-37.499999" height="449.999989" fill-opacity="1"/><rect x="-37.5" width="450" fill="#ffffff" y="-37.499999" height="449.999989" fill-opacity="1"/><path fill="#004aad" d="M 122.914062 182.265625 C 122.914062 184.804688 120.855469 186.863281 118.316406 186.863281 C 115.78125 186.863281 113.722656 184.804688 113.722656 182.265625 C 113.722656 179.726562 115.78125 177.671875 118.316406 177.671875 C 120.855469 177.671875 122.914062 179.726562 122.914062 182.265625 Z M 122.914062 182.265625 " fill-opacity="1" fill-rule="nonzero"/><g clip-path="url(#aa50d636f1)"><path fill="#004aad" d="M 62.441406 161.65625 L 62.425781 158.902344 C 68.375 157.203125 73.75 153.792969 77.851562 149.0625 C 82.886719 143.246094 85.660156 135.804688 85.660156 128.105469 L 85.660156 116.359375 L 61.453125 118.519531 C 55.996094 119.003906 50.910156 121.367188 47.019531 125.082031 C 43.132812 121.367188 38.039062 119.003906 32.585938 118.519531 L 8.378906 116.359375 L 8.378906 128.105469 C 8.378906 135.804688 11.152344 143.25 16.191406 149.0625 C 20.292969 153.796875 25.667969 157.207031 31.617188 158.902344 L 31.585938 166.253906 C 31.585938 197.105469 52.648438 223.757812 82.214844 231.101562 C 82.226562 236.148438 83.152344 241.472656 85.574219 246.757812 L 87.324219 250.566406 L 91.277344 249.179688 C 100.386719 245.972656 107.847656 239.90625 113.199219 231.4375 C 143.480469 224.601562 165.242188 197.519531 165.242188 166.253906 L 165.242188 161.65625 Z M 118.523438 220.289062 C 120.164062 215.59375 120.957031 211.480469 121.324219 208.933594 C 130.546875 203.964844 137.972656 196.105469 142.394531 186.566406 L 134.054688 182.703125 C 130.171875 191.078125 123.4375 197.855469 115.085938 201.789062 L 112.628906 202.945312 L 112.457031 205.65625 C 112.441406 205.910156 110.75 229.230469 92.410156 238.703125 C 88.242188 223.160156 98.769531 207.375 98.886719 207.203125 L 95.089844 204.613281 L 91.300781 202.015625 C 90.914062 202.578125 85.414062 210.757812 83.160156 221.851562 C 58.335938 215.082031 40.777344 192.421875 40.777344 166.273438 L 40.839844 151.269531 L 36.921875 150.671875 C 31.589844 149.859375 26.695312 147.148438 23.136719 143.042969 C 19.546875 138.902344 17.570312 133.59375 17.570312 128.105469 L 17.570312 126.40625 L 31.769531 127.675781 C 36.433594 128.089844 40.664062 130.730469 43.085938 134.738281 L 43.207031 134.933594 L 47.398438 140.515625 L 50.957031 134.738281 C 53.378906 130.730469 57.605469 128.089844 62.269531 127.675781 L 76.46875 126.40625 L 76.46875 128.105469 C 76.46875 133.59375 74.492188 138.902344 70.902344 143.042969 C 67.347656 147.148438 62.453125 149.855469 57.121094 150.671875 L 53.203125 151.269531 L 53.289062 170.847656 L 155.871094 170.847656 C 154.082031 193.277344 139.324219 212.558594 118.523438 220.289062 Z M 118.523438 220.289062 " fill-opacity="1" fill-rule="nonzero"/></g><g fill="#004aad" fill-opacity="1"><g transform="translate(170.506276, 188.768555)"><g><path d="M 13.96875 0.546875 C 12.394531 0.546875 10.878906 0.207031 9.421875 -0.46875 C 7.960938 -1.144531 6.675781 -2.101562 5.5625 -3.34375 C 4.445312 -4.582031 3.5625 -6.0625 2.90625 -7.78125 C 2.25 -9.5 1.921875 -11.378906 1.921875 -13.421875 C 1.921875 -15.472656 2.25 -17.351562 2.90625 -19.0625 C 3.5625 -20.78125 4.445312 -22.25 5.5625 -23.46875 C 6.675781 -24.695312 7.960938 -25.660156 9.421875 -26.359375 C 10.878906 -27.054688 12.394531 -27.40625 13.96875 -27.40625 C 15.394531 -27.40625 16.632812 -27.175781 17.6875 -26.71875 C 18.75 -26.257812 19.648438 -25.753906 20.390625 -25.203125 C 21.222656 -24.546875 21.914062 -23.816406 22.46875 -23.015625 L 22.734375 -23.015625 L 22.734375 -38.359375 L 30.140625 -38.359375 L 30.140625 0 L 22.734375 0 L 22.734375 -3.828125 L 22.46875 -3.828125 C 21.914062 -3.023438 21.222656 -2.296875 20.390625 -1.640625 C 19.648438 -1.097656 18.75 -0.597656 17.6875 -0.140625 C 16.632812 0.316406 15.394531 0.546875 13.96875 0.546875 Z M 16.171875 -6.296875 C 17.117188 -6.296875 18.007812 -6.476562 18.84375 -6.84375 C 19.6875 -7.207031 20.414062 -7.703125 21.03125 -8.328125 C 21.65625 -8.953125 22.140625 -9.703125 22.484375 -10.578125 C 22.835938 -11.453125 23.015625 -12.398438 23.015625 -13.421875 C 23.015625 -14.441406 22.835938 -15.390625 22.484375 -16.265625 C 22.140625 -17.148438 21.65625 -17.898438 21.03125 -18.515625 C 20.414062 -19.140625 19.6875 -19.632812 18.84375 -20 C 18.007812 -20.363281 17.117188 -20.546875 16.171875 -20.546875 C 15.210938 -20.546875 14.3125 -20.363281 13.46875 -20 C 12.632812 -19.632812 11.90625 -19.140625 11.28125 -18.515625 C 10.664062 -17.898438 10.179688 -17.148438 9.828125 -16.265625 C 9.484375 -15.390625 9.3125 -14.441406 9.3125 -13.421875 C 9.3125 -12.398438 9.484375 -11.453125 9.828125 -10.578125 C 10.179688 -9.703125 10.664062 -8.953125 11.28125 -8.328125 C 11.90625 -7.703125 12.632812 -7.207031 13.46875 -6.84375 C 14.3125 -6.476562 15.210938 -6.296875 16.171875 -6.296875 Z M 16.171875 -6.296875 "/></g></g></g><g fill="#004aad" fill-opacity="1"><g transform="translate(201.733811, 188.768555)"><g><path d="M 16.171875 0.546875 C 14.191406 0.546875 12.332031 0.179688 10.59375 -0.546875 C 8.863281 -1.273438 7.347656 -2.28125 6.046875 -3.5625 C 4.753906 -4.84375 3.742188 -6.320312 3.015625 -8 C 2.285156 -9.675781 1.921875 -11.484375 1.921875 -13.421875 C 1.921875 -15.328125 2.285156 -17.128906 3.015625 -18.828125 C 3.742188 -20.523438 4.75 -22.007812 6.03125 -23.28125 C 7.3125 -24.5625 8.789062 -25.566406 10.46875 -26.296875 C 12.144531 -27.035156 13.953125 -27.40625 15.890625 -27.40625 C 17.753906 -27.40625 19.5 -27.046875 21.125 -26.328125 C 22.75 -25.617188 24.160156 -24.660156 25.359375 -23.453125 C 26.566406 -22.242188 27.523438 -20.828125 28.234375 -19.203125 C 28.953125 -17.578125 29.3125 -15.832031 29.3125 -13.96875 C 29.3125 -13.457031 29.289062 -13.007812 29.25 -12.625 C 29.21875 -12.25 29.1875 -11.910156 29.15625 -11.609375 C 29.113281 -11.242188 29.078125 -10.9375 29.046875 -10.6875 L 9.59375 -10.6875 C 9.988281 -9.445312 10.757812 -8.359375 11.90625 -7.421875 C 13.0625 -6.492188 14.664062 -6.03125 16.71875 -6.03125 C 17.882812 -6.03125 18.90625 -6.175781 19.78125 -6.46875 C 20.65625 -6.757812 21.40625 -7.101562 22.03125 -7.5 C 22.71875 -7.945312 23.320312 -8.460938 23.84375 -9.046875 L 27.671875 -3.828125 C 26.867188 -3.023438 25.882812 -2.296875 24.71875 -1.640625 C 23.726562 -1.097656 22.519531 -0.597656 21.09375 -0.140625 C 19.664062 0.316406 18.023438 0.546875 16.171875 0.546875 Z M 21.640625 -16.171875 C 21.242188 -17.410156 20.523438 -18.492188 19.484375 -19.421875 C 18.441406 -20.359375 17.148438 -20.828125 15.609375 -20.828125 C 14.078125 -20.828125 12.789062 -20.359375 11.75 -19.421875 C 10.707031 -18.492188 9.988281 -17.410156 9.59375 -16.171875 Z M 21.640625 -16.171875 "/></g></g></g><g fill="#004aad" fill-opacity="1"><g transform="translate(230.222033, 188.768555)"><g><path d="M 3.5625 -26.84375 L 10.953125 -26.84375 L 10.953125 -23.015625 L 11.234375 -23.015625 C 11.785156 -23.816406 12.476562 -24.546875 13.3125 -25.203125 C 14.039062 -25.753906 14.925781 -26.257812 15.96875 -26.71875 C 17.007812 -27.175781 18.265625 -27.40625 19.734375 -27.40625 C 21.296875 -27.40625 22.804688 -27.054688 24.265625 -26.359375 C 25.734375 -25.660156 27.023438 -24.695312 28.140625 -23.46875 C 29.253906 -22.25 30.140625 -20.78125 30.796875 -19.0625 C 31.453125 -17.351562 31.78125 -15.472656 31.78125 -13.421875 C 31.78125 -11.378906 31.453125 -9.5 30.796875 -7.78125 C 30.140625 -6.0625 29.253906 -4.582031 28.140625 -3.34375 C 27.023438 -2.101562 25.734375 -1.144531 24.265625 -0.46875 C 22.804688 0.207031 21.296875 0.546875 19.734375 0.546875 C 18.265625 0.546875 17.007812 0.316406 15.96875 -0.140625 C 14.925781 -0.597656 14.039062 -1.097656 13.3125 -1.640625 C 12.476562 -2.296875 11.785156 -3.023438 11.234375 -3.828125 L 10.953125 -3.828125 L 10.953125 11.5 L 3.5625 11.5 Z M 17.53125 -6.296875 C 18.476562 -6.296875 19.375 -6.476562 20.21875 -6.84375 C 21.0625 -7.207031 21.789062 -7.703125 22.40625 -8.328125 C 23.03125 -8.953125 23.515625 -9.703125 23.859375 -10.578125 C 24.210938 -11.453125 24.390625 -12.398438 24.390625 -13.421875 C 24.390625 -14.441406 24.210938 -15.390625 23.859375 -16.265625 C 23.515625 -17.148438 23.03125 -17.898438 22.40625 -18.515625 C 21.789062 -19.140625 21.0625 -19.632812 20.21875 -20 C 19.375 -20.363281 18.476562 -20.546875 17.53125 -20.546875 C 16.582031 -20.546875 15.6875 -20.363281 14.84375 -20 C 14.007812 -19.632812 13.28125 -19.140625 12.65625 -18.515625 C 12.03125 -17.898438 11.546875 -17.148438 11.203125 -16.265625 C 10.859375 -15.390625 10.6875 -14.441406 10.6875 -13.421875 C 10.6875 -12.398438 10.859375 -11.453125 11.203125 -10.578125 C 11.546875 -9.703125 12.03125 -8.953125 12.65625 -8.328125 C 13.28125 -7.703125 14.007812 -7.207031 14.84375 -6.84375 C 15.6875 -6.476562 16.582031 -6.296875 17.53125 -6.296875 Z M 17.53125 -6.296875 "/></g></g></g><g fill="#004aad" fill-opacity="1"><g transform="translate(261.175636, 188.768555)"><g><path d="M 3.5625 -26.84375 L 10.953125 -26.84375 L 10.953125 0 L 3.5625 0 Z M 7.234375 -30.40625 C 6.066406 -30.40625 5.070312 -30.816406 4.25 -31.640625 C 3.425781 -32.460938 3.015625 -33.421875 3.015625 -34.515625 C 3.015625 -35.617188 3.429688 -36.578125 4.265625 -37.390625 C 5.109375 -38.210938 6.113281 -38.625 7.28125 -38.625 C 8.457031 -38.625 9.453125 -38.210938 10.265625 -37.390625 C 11.085938 -36.578125 11.5 -35.617188 11.5 -34.515625 C 11.5 -33.421875 11.078125 -32.460938 10.234375 -31.640625 C 9.398438 -30.816406 8.398438 -30.40625 7.234375 -30.40625 Z M 7.234375 -30.40625 "/></g></g></g><g fill="#004aad" fill-opacity="1"><g transform="translate(272.954089, 188.768555)"><g><path d="M 3.5625 -26.84375 L 10.953125 -26.84375 L 10.953125 -23.015625 L 11.234375 -23.015625 C 11.816406 -23.816406 12.492188 -24.546875 13.265625 -25.203125 C 13.921875 -25.753906 14.738281 -26.257812 15.71875 -26.71875 C 16.707031 -27.175781 17.859375 -27.40625 19.171875 -27.40625 C 20.523438 -27.40625 21.804688 -27.140625 23.015625 -26.609375 C 24.222656 -26.078125 25.273438 -25.328125 26.171875 -24.359375 C 27.066406 -23.390625 27.769531 -22.207031 28.28125 -20.8125 C 28.789062 -19.425781 29.046875 -17.878906 29.046875 -16.171875 L 29.046875 0 L 21.640625 0 L 21.640625 -15.0625 C 21.640625 -16.707031 21.203125 -17.988281 20.328125 -18.90625 C 19.453125 -19.820312 18.25 -20.28125 16.71875 -20.28125 C 15.070312 -20.28125 13.695312 -19.722656 12.59375 -18.609375 C 11.5 -17.492188 10.953125 -16.039062 10.953125 -14.25 L 10.953125 0 L 3.5625 0 Z M 3.5625 -26.84375 "/></g></g></g><g fill="#004aad" fill-opacity="1"><g transform="translate(302.811961, 188.768555)"><g><path d="M 5.203125 -19.453125 L 1.09375 -19.453125 L 1.09375 -26.296875 L 5.203125 -26.296875 L 5.203125 -29.046875 C 5.203125 -32.222656 6.023438 -34.660156 7.671875 -36.359375 C 9.316406 -38.054688 11.507812 -38.90625 14.25 -38.90625 C 14.9375 -38.90625 15.582031 -38.859375 16.1875 -38.765625 C 16.789062 -38.671875 17.3125 -38.570312 17.75 -38.46875 C 18.257812 -38.320312 18.734375 -38.191406 19.171875 -38.078125 L 19.171875 -31.234375 C 18.921875 -31.304688 18.628906 -31.398438 18.296875 -31.515625 C 18.003906 -31.585938 17.675781 -31.648438 17.3125 -31.703125 C 16.945312 -31.753906 16.566406 -31.78125 16.171875 -31.78125 C 15.066406 -31.78125 14.195312 -31.453125 13.5625 -30.796875 C 12.925781 -30.140625 12.609375 -29.191406 12.609375 -27.953125 L 12.609375 -26.296875 L 18.625 -26.296875 L 18.625 -19.453125 L 12.609375 -19.453125 L 12.609375 0 L 5.203125 0 Z M 5.203125 -19.453125 "/></g></g></g><g fill="#004aad" fill-opacity="1"><g transform="translate(320.34296, 188.768555)"><g><path d="M 3.5625 -26.84375 L 10.953125 -26.84375 L 10.953125 -23.015625 L 11.234375 -23.015625 C 11.816406 -23.816406 12.492188 -24.546875 13.265625 -25.203125 C 13.921875 -25.753906 14.738281 -26.257812 15.71875 -26.71875 C 16.707031 -27.175781 17.859375 -27.40625 19.171875 -27.40625 L 19.734375 -27.40625 L 19.734375 -19.453125 C 19.546875 -19.484375 19.34375 -19.519531 19.125 -19.5625 C 18.90625 -19.601562 18.640625 -19.640625 18.328125 -19.671875 C 18.015625 -19.710938 17.660156 -19.734375 17.265625 -19.734375 C 15.472656 -19.734375 13.972656 -19.09375 12.765625 -17.8125 C 11.554688 -16.53125 10.953125 -14.796875 10.953125 -12.609375 L 10.953125 0 L 3.5625 0 Z M 3.5625 -26.84375 "/></g></g></g><g fill="#004aad" fill-opacity="1"><g transform="translate(338.421818, 188.768555)"><g><path d="M 10.40625 0.546875 C 9.164062 0.546875 8.039062 0.351562 7.03125 -0.03125 C 6.03125 -0.414062 5.171875 -0.953125 4.453125 -1.640625 C 3.742188 -2.335938 3.1875 -3.148438 2.78125 -4.078125 C 2.382812 -5.015625 2.1875 -6.03125 2.1875 -7.125 C 2.1875 -9.3125 2.890625 -11.179688 4.296875 -12.734375 C 5.703125 -14.285156 7.648438 -15.285156 10.140625 -15.734375 L 18.625 -17.265625 C 18.476562 -18.210938 18.015625 -19.039062 17.234375 -19.75 C 16.453125 -20.46875 15.363281 -20.828125 13.96875 -20.828125 C 13.019531 -20.828125 12.171875 -20.671875 11.421875 -20.359375 C 10.671875 -20.046875 10.039062 -19.6875 9.53125 -19.28125 C 8.914062 -18.84375 8.390625 -18.351562 7.953125 -17.8125 L 3.5625 -22.1875 C 4.332031 -23.144531 5.265625 -24.003906 6.359375 -24.765625 C 7.304688 -25.421875 8.457031 -26.023438 9.8125 -26.578125 C 11.164062 -27.128906 12.734375 -27.40625 14.515625 -27.40625 C 16.234375 -27.40625 17.796875 -27.128906 19.203125 -26.578125 C 20.609375 -26.023438 21.820312 -25.265625 22.84375 -24.296875 C 23.875 -23.328125 24.660156 -22.191406 25.203125 -20.890625 C 25.753906 -19.597656 26.03125 -18.207031 26.03125 -16.71875 L 26.03125 0 L 18.625 0 L 18.625 -3.28125 L 18.359375 -3.28125 C 17.773438 -2.550781 17.097656 -1.914062 16.328125 -1.375 C 15.671875 -0.863281 14.835938 -0.414062 13.828125 -0.03125 C 12.828125 0.351562 11.6875 0.546875 10.40625 0.546875 Z M 12.875 -5.484375 C 14.519531 -5.484375 15.890625 -6.039062 16.984375 -7.15625 C 18.078125 -8.269531 18.625 -9.71875 18.625 -11.5 L 18.625 -12.0625 L 12.609375 -10.953125 C 11.648438 -10.773438 10.90625 -10.445312 10.375 -9.96875 C 9.851562 -9.5 9.59375 -8.914062 9.59375 -8.21875 C 9.59375 -7.375 9.863281 -6.707031 10.40625 -6.21875 C 10.957031 -5.726562 11.78125 -5.484375 12.875 -5.484375 Z M 12.875 -5.484375 "/></g></g></g><g fill="#004aad" fill-opacity="1"><g transform="translate(179.918932, 213.643653)"><g><path d="M 6.375 -6.125 L -0.125 -17.15625 L 4.171875 -17.15625 L 8.15625 -9.796875 L 8.25 -9.796875 L 12.25 -17.15625 L 16.53125 -17.15625 L 10.046875 -6.125 L 10.046875 0 L 6.375 0 Z M 6.375 -6.125 "/></g></g></g><g fill="#004aad" fill-opacity="1"><g transform="translate(195.110356, 213.643653)"><g><path d="M 7.234375 0.25 C 6.347656 0.25 5.515625 0.0859375 4.734375 -0.234375 C 3.960938 -0.566406 3.285156 -1.019531 2.703125 -1.59375 C 2.128906 -2.164062 1.675781 -2.828125 1.34375 -3.578125 C 1.019531 -4.328125 0.859375 -5.132812 0.859375 -6 C 0.859375 -6.851562 1.019531 -7.660156 1.34375 -8.421875 C 1.675781 -9.179688 2.128906 -9.84375 2.703125 -10.40625 C 3.285156 -10.976562 3.960938 -11.425781 4.734375 -11.75 C 5.515625 -12.082031 6.347656 -12.25 7.234375 -12.25 C 8.109375 -12.25 8.929688 -12.082031 9.703125 -11.75 C 10.484375 -11.425781 11.164062 -10.976562 11.75 -10.40625 C 12.332031 -9.84375 12.785156 -9.179688 13.109375 -8.421875 C 13.429688 -7.660156 13.59375 -6.851562 13.59375 -6 C 13.59375 -5.132812 13.429688 -4.328125 13.109375 -3.578125 C 12.785156 -2.828125 12.332031 -2.164062 11.75 -1.59375 C 11.164062 -1.019531 10.484375 -0.566406 9.703125 -0.234375 C 8.929688 0.0859375 8.109375 0.25 7.234375 0.25 Z M 7.234375 -2.8125 C 7.648438 -2.8125 8.046875 -2.894531 8.421875 -3.0625 C 8.796875 -3.226562 9.125 -3.445312 9.40625 -3.71875 C 9.6875 -4 9.90625 -4.332031 10.0625 -4.71875 C 10.21875 -5.113281 10.296875 -5.539062 10.296875 -6 C 10.296875 -6.457031 10.21875 -6.878906 10.0625 -7.265625 C 9.90625 -7.660156 9.6875 -8 9.40625 -8.28125 C 9.125 -8.5625 8.796875 -8.78125 8.421875 -8.9375 C 8.046875 -9.101562 7.648438 -9.1875 7.234375 -9.1875 C 6.804688 -9.1875 6.40625 -9.101562 6.03125 -8.9375 C 5.65625 -8.78125 5.328125 -8.5625 5.046875 -8.28125 C 4.765625 -8 4.546875 -7.660156 4.390625 -7.265625 C 4.242188 -6.878906 4.171875 -6.457031 4.171875 -6 C 4.171875 -5.539062 4.242188 -5.113281 4.390625 -4.71875 C 4.546875 -4.332031 4.765625 -4 5.046875 -3.71875 C 5.328125 -3.445312 5.65625 -3.226562 6.03125 -3.0625 C 6.40625 -2.894531 6.804688 -2.8125 7.234375 -2.8125 Z M 7.234375 -2.8125 "/></g></g></g><g fill="#004aad" fill-opacity="1"><g transform="translate(208.341515, 213.643653)"><g><path d="M 6 0.25 C 5.382812 0.25 4.8125 0.128906 4.28125 -0.109375 C 3.75 -0.347656 3.28125 -0.679688 2.875 -1.109375 C 2.476562 -1.546875 2.164062 -2.070312 1.9375 -2.6875 C 1.707031 -3.3125 1.59375 -4.007812 1.59375 -4.78125 L 1.59375 -12 L 4.90625 -12 L 4.90625 -5.265625 C 4.90625 -4.535156 5.097656 -3.960938 5.484375 -3.546875 C 5.878906 -3.140625 6.421875 -2.9375 7.109375 -2.9375 C 7.835938 -2.9375 8.445312 -3.1875 8.9375 -3.6875 C 9.425781 -4.1875 9.671875 -4.835938 9.671875 -5.640625 L 9.671875 -12 L 12.984375 -12 L 12.984375 0 L 9.671875 0 L 9.671875 -1.71875 L 9.5625 -1.71875 C 9.289062 -1.351562 8.988281 -1.023438 8.65625 -0.734375 C 8.351562 -0.492188 7.976562 -0.269531 7.53125 -0.0625 C 7.082031 0.144531 6.570312 0.25 6 0.25 Z M 6 0.25 "/></g></g></g><g fill="#004aad" fill-opacity="1"><g transform="translate(221.695188, 213.643653)"><g><path d="M 1.59375 -12 L 4.90625 -12 L 4.90625 -10.296875 L 5.015625 -10.296875 C 5.285156 -10.648438 5.585938 -10.972656 5.921875 -11.265625 C 6.222656 -11.515625 6.59375 -11.738281 7.03125 -11.9375 C 7.46875 -12.144531 7.984375 -12.25 8.578125 -12.25 L 8.8125 -12.25 L 8.8125 -8.703125 C 8.738281 -8.710938 8.648438 -8.726562 8.546875 -8.75 C 8.453125 -8.757812 8.332031 -8.769531 8.1875 -8.78125 C 8.050781 -8.800781 7.894531 -8.8125 7.71875 -8.8125 C 6.914062 -8.8125 6.242188 -8.523438 5.703125 -7.953125 C 5.171875 -7.390625 4.90625 -6.617188 4.90625 -5.640625 L 4.90625 0 L 1.59375 0 Z M 1.59375 -12 "/></g></g></g><g fill="#004aad" fill-opacity="1"><g transform="translate(229.780666, 213.643653)"><g/></g></g><g fill="#004aad" fill-opacity="1"><g transform="translate(233.700579, 213.643653)"><g><path d="M 7.234375 0.25 C 6.347656 0.25 5.515625 0.0859375 4.734375 -0.234375 C 3.960938 -0.566406 3.285156 -1.019531 2.703125 -1.59375 C 2.128906 -2.164062 1.675781 -2.828125 1.34375 -3.578125 C 1.019531 -4.328125 0.859375 -5.132812 0.859375 -6 C 0.859375 -6.851562 1.019531 -7.660156 1.34375 -8.421875 C 1.675781 -9.179688 2.128906 -9.84375 2.703125 -10.40625 C 3.285156 -10.976562 3.960938 -11.425781 4.734375 -11.75 C 5.515625 -12.082031 6.347656 -12.25 7.234375 -12.25 C 8.097656 -12.25 8.835938 -12.117188 9.453125 -11.859375 C 10.078125 -11.609375 10.601562 -11.332031 11.03125 -11.03125 C 11.519531 -10.664062 11.925781 -10.253906 12.25 -9.796875 L 10.171875 -7.71875 C 9.941406 -8 9.679688 -8.242188 9.390625 -8.453125 C 9.117188 -8.628906 8.800781 -8.796875 8.4375 -8.953125 C 8.082031 -9.109375 7.679688 -9.1875 7.234375 -9.1875 C 6.804688 -9.1875 6.40625 -9.101562 6.03125 -8.9375 C 5.65625 -8.78125 5.328125 -8.5625 5.046875 -8.28125 C 4.765625 -8 4.546875 -7.660156 4.390625 -7.265625 C 4.242188 -6.878906 4.171875 -6.457031 4.171875 -6 C 4.171875 -5.539062 4.242188 -5.113281 4.390625 -4.71875 C 4.546875 -4.332031 4.765625 -4 5.046875 -3.71875 C 5.328125 -3.445312 5.65625 -3.226562 6.03125 -3.0625 C 6.40625 -2.894531 6.804688 -2.8125 7.234375 -2.8125 C 7.679688 -2.8125 8.082031 -2.890625 8.4375 -3.046875 C 8.800781 -3.203125 9.117188 -3.367188 9.390625 -3.546875 C 9.679688 -3.765625 9.941406 -4.007812 10.171875 -4.28125 L 12.25 -2.203125 C 11.925781 -1.742188 11.519531 -1.335938 11.03125 -0.984375 C 10.601562 -0.671875 10.078125 -0.382812 9.453125 -0.125 C 8.835938 0.125 8.097656 0.25 7.234375 0.25 Z M 7.234375 0.25 "/></g></g></g><g fill="#004aad" fill-opacity="1"><g transform="translate(245.216506, 213.643653)"><g><path d="M 7.234375 0.25 C 6.347656 0.25 5.515625 0.0859375 4.734375 -0.234375 C 3.960938 -0.566406 3.285156 -1.019531 2.703125 -1.59375 C 2.128906 -2.164062 1.675781 -2.828125 1.34375 -3.578125 C 1.019531 -4.328125 0.859375 -5.132812 0.859375 -6 C 0.859375 -6.851562 1.019531 -7.660156 1.34375 -8.421875 C 1.675781 -9.179688 2.128906 -9.84375 2.703125 -10.40625 C 3.285156 -10.976562 3.960938 -11.425781 4.734375 -11.75 C 5.515625 -12.082031 6.347656 -12.25 7.234375 -12.25 C 8.109375 -12.25 8.929688 -12.082031 9.703125 -11.75 C 10.484375 -11.425781 11.164062 -10.976562 11.75 -10.40625 C 12.332031 -9.84375 12.785156 -9.179688 13.109375 -8.421875 C 13.429688 -7.660156 13.59375 -6.851562 13.59375 -6 C 13.59375 -5.132812 13.429688 -4.328125 13.109375 -3.578125 C 12.785156 -2.828125 12.332031 -2.164062 11.75 -1.59375 C 11.164062 -1.019531 10.484375 -0.566406 9.703125 -0.234375 C 8.929688 0.0859375 8.109375 0.25 7.234375 0.25 Z M 7.234375 -2.8125 C 7.648438 -2.8125 8.046875 -2.894531 8.421875 -3.0625 C 8.796875 -3.226562 9.125 -3.445312 9.40625 -3.71875 C 9.6875 -4 9.90625 -4.332031 10.0625 -4.71875 C 10.21875 -5.113281 10.296875 -5.539062 10.296875 -6 C 10.296875 -6.457031 10.21875 -6.878906 10.0625 -7.265625 C 9.90625 -7.660156 9.6875 -8 9.40625 -8.28125 C 9.125 -8.5625 8.796875 -8.78125 8.421875 -8.9375 C 8.046875 -9.101562 7.648438 -9.1875 7.234375 -9.1875 C 6.804688 -9.1875 6.40625 -9.101562 6.03125 -8.9375 C 5.65625 -8.78125 5.328125 -8.5625 5.046875 -8.28125 C 4.765625 -8 4.546875 -7.660156 4.390625 -7.265625 C 4.242188 -6.878906 4.171875 -6.457031 4.171875 -6 C 4.171875 -5.539062 4.242188 -5.113281 4.390625 -4.71875 C 4.546875 -4.332031 4.765625 -4 5.046875 -3.71875 C 5.328125 -3.445312 5.65625 -3.226562 6.03125 -3.0625 C 6.40625 -2.894531 6.804688 -2.8125 7.234375 -2.8125 Z M 7.234375 -2.8125 "/></g></g></g><g fill="#004aad" fill-opacity="1"><g transform="translate(258.447661, 213.643653)"><g><path d="M 1.59375 -12 L 4.90625 -12 L 4.90625 -10.296875 L 5.015625 -10.296875 C 5.234375 -10.648438 5.5 -10.972656 5.8125 -11.265625 C 6.082031 -11.515625 6.421875 -11.738281 6.828125 -11.9375 C 7.242188 -12.144531 7.742188 -12.25 8.328125 -12.25 C 8.960938 -12.25 9.507812 -12.140625 9.96875 -11.921875 C 10.425781 -11.703125 10.796875 -11.460938 11.078125 -11.203125 C 11.398438 -10.898438 11.664062 -10.554688 11.875 -10.171875 L 12 -10.171875 C 12.28125 -10.554688 12.617188 -10.898438 13.015625 -11.203125 C 13.335938 -11.460938 13.738281 -11.703125 14.21875 -11.921875 C 14.695312 -12.140625 15.265625 -12.25 15.921875 -12.25 C 16.515625 -12.25 17.0625 -12.140625 17.5625 -11.921875 C 18.070312 -11.703125 18.515625 -11.382812 18.890625 -10.96875 C 19.265625 -10.550781 19.554688 -10.046875 19.765625 -9.453125 C 19.984375 -8.867188 20.09375 -8.207031 20.09375 -7.46875 L 20.09375 0 L 16.78125 0 L 16.78125 -6.984375 C 16.78125 -7.671875 16.609375 -8.1875 16.265625 -8.53125 C 15.921875 -8.882812 15.441406 -9.0625 14.828125 -9.0625 C 14.140625 -9.0625 13.578125 -8.835938 13.140625 -8.390625 C 12.710938 -7.941406 12.5 -7.347656 12.5 -6.609375 L 12.5 0 L 9.1875 0 L 9.1875 -6.984375 C 9.1875 -7.671875 9.015625 -8.1875 8.671875 -8.53125 C 8.328125 -8.882812 7.847656 -9.0625 7.234375 -9.0625 C 6.546875 -9.0625 5.984375 -8.835938 5.546875 -8.390625 C 5.117188 -7.941406 4.90625 -7.347656 4.90625 -6.609375 L 4.90625 0 L 1.59375 0 Z M 1.59375 -12 "/></g></g></g><g fill="#004aad" fill-opacity="1"><g transform="translate(278.907284, 213.643653)"><g><path d="M 1.59375 -12 L 4.90625 -12 L 4.90625 -10.296875 L 5.015625 -10.296875 C 5.234375 -10.648438 5.5 -10.972656 5.8125 -11.265625 C 6.082031 -11.515625 6.421875 -11.738281 6.828125 -11.9375 C 7.242188 -12.144531 7.742188 -12.25 8.328125 -12.25 C 8.960938 -12.25 9.507812 -12.140625 9.96875 -11.921875 C 10.425781 -11.703125 10.796875 -11.460938 11.078125 -11.203125 C 11.398438 -10.898438 11.664062 -10.554688 11.875 -10.171875 L 12 -10.171875 C 12.28125 -10.554688 12.617188 -10.898438 13.015625 -11.203125 C 13.335938 -11.460938 13.738281 -11.703125 14.21875 -11.921875 C 14.695312 -12.140625 15.265625 -12.25 15.921875 -12.25 C 16.515625 -12.25 17.0625 -12.140625 17.5625 -11.921875 C 18.070312 -11.703125 18.515625 -11.382812 18.890625 -10.96875 C 19.265625 -10.550781 19.554688 -10.046875 19.765625 -9.453125 C 19.984375 -8.867188 20.09375 -8.207031 20.09375 -7.46875 L 20.09375 0 L 16.78125 0 L 16.78125 -6.984375 C 16.78125 -7.671875 16.609375 -8.1875 16.265625 -8.53125 C 15.921875 -8.882812 15.441406 -9.0625 14.828125 -9.0625 C 14.140625 -9.0625 13.578125 -8.835938 13.140625 -8.390625 C 12.710938 -7.941406 12.5 -7.347656 12.5 -6.609375 L 12.5 0 L 9.1875 0 L 9.1875 -6.984375 C 9.1875 -7.671875 9.015625 -8.1875 8.671875 -8.53125 C 8.328125 -8.882812 7.847656 -9.0625 7.234375 -9.0625 C 6.546875 -9.0625 5.984375 -8.835938 5.546875 -8.390625 C 5.117188 -7.941406 4.90625 -7.347656 4.90625 -6.609375 L 4.90625 0 L 1.59375 0 Z M 1.59375 -12 "/></g></g></g><g fill="#004aad" fill-opacity="1"><g transform="translate(299.366907, 213.643653)"><g><path d="M 6 0.25 C 5.382812 0.25 4.8125 0.128906 4.28125 -0.109375 C 3.75 -0.347656 3.28125 -0.679688 2.875 -1.109375 C 2.476562 -1.546875 2.164062 -2.070312 1.9375 -2.6875 C 1.707031 -3.3125 1.59375 -4.007812 1.59375 -4.78125 L 1.59375 -12 L 4.90625 -12 L 4.90625 -5.265625 C 4.90625 -4.535156 5.097656 -3.960938 5.484375 -3.546875 C 5.878906 -3.140625 6.421875 -2.9375 7.109375 -2.9375 C 7.835938 -2.9375 8.445312 -3.1875 8.9375 -3.6875 C 9.425781 -4.1875 9.671875 -4.835938 9.671875 -5.640625 L 9.671875 -12 L 12.984375 -12 L 12.984375 0 L 9.671875 0 L 9.671875 -1.71875 L 9.5625 -1.71875 C 9.289062 -1.351562 8.988281 -1.023438 8.65625 -0.734375 C 8.351562 -0.492188 7.976562 -0.269531 7.53125 -0.0625 C 7.082031 0.144531 6.570312 0.25 6 0.25 Z M 6 0.25 "/></g></g></g><g fill="#004aad" fill-opacity="1"><g transform="translate(312.720583, 213.643653)"><g><path d="M 1.59375 -12 L 4.90625 -12 L 4.90625 -10.296875 L 5.015625 -10.296875 C 5.285156 -10.648438 5.585938 -10.972656 5.921875 -11.265625 C 6.222656 -11.515625 6.59375 -11.738281 7.03125 -11.9375 C 7.46875 -12.144531 7.984375 -12.25 8.578125 -12.25 C 9.179688 -12.25 9.75 -12.128906 10.28125 -11.890625 C 10.820312 -11.660156 11.289062 -11.328125 11.6875 -10.890625 C 12.09375 -10.453125 12.410156 -9.921875 12.640625 -9.296875 C 12.867188 -8.679688 12.984375 -7.992188 12.984375 -7.234375 L 12.984375 0 L 9.671875 0 L 9.671875 -6.734375 C 9.671875 -7.472656 9.472656 -8.046875 9.078125 -8.453125 C 8.691406 -8.859375 8.15625 -9.0625 7.46875 -9.0625 C 6.738281 -9.0625 6.128906 -8.8125 5.640625 -8.3125 C 5.148438 -7.820312 4.90625 -7.175781 4.90625 -6.375 L 4.90625 0 L 1.59375 0 Z M 1.59375 -12 "/></g></g></g><g fill="#004aad" fill-opacity="1"><g transform="translate(326.074258, 213.643653)"><g><path d="M 1.59375 -12 L 4.90625 -12 L 4.90625 0 L 1.59375 0 Z M 3.234375 -13.59375 C 2.710938 -13.59375 2.265625 -13.773438 1.890625 -14.140625 C 1.523438 -14.515625 1.34375 -14.945312 1.34375 -15.4375 C 1.34375 -15.925781 1.53125 -16.351562 1.90625 -16.71875 C 2.28125 -17.082031 2.734375 -17.265625 3.265625 -17.265625 C 3.785156 -17.265625 4.226562 -17.082031 4.59375 -16.71875 C 4.957031 -16.351562 5.140625 -15.925781 5.140625 -15.4375 C 5.140625 -14.945312 4.953125 -14.515625 4.578125 -14.140625 C 4.203125 -13.773438 3.753906 -13.59375 3.234375 -13.59375 Z M 3.234375 -13.59375 "/></g></g></g><g fill="#004aad" fill-opacity="1"><g transform="translate(331.341846, 213.643653)"><g><path d="M 6.609375 0.25 C 5.390625 0.25 4.410156 -0.128906 3.671875 -0.890625 C 2.941406 -1.648438 2.578125 -2.742188 2.578125 -4.171875 L 2.578125 -8.703125 L 0.484375 -8.703125 L 0.484375 -11.765625 L 1.59375 -11.765625 C 2.488281 -11.765625 2.9375 -12.253906 2.9375 -13.234375 L 2.9375 -15.4375 L 5.875 -15.4375 L 5.875 -11.765625 L 8.578125 -11.765625 L 8.578125 -8.703125 L 5.875 -8.703125 L 5.875 -4.65625 C 5.875 -4.101562 6.015625 -3.675781 6.296875 -3.375 C 6.585938 -3.082031 6.976562 -2.9375 7.46875 -2.9375 C 7.832031 -2.9375 8.148438 -2.976562 8.421875 -3.0625 C 8.578125 -3.09375 8.707031 -3.132812 8.8125 -3.1875 L 8.8125 -0.125 C 8.625 -0.0625 8.414062 0.00390625 8.1875 0.078125 C 7.988281 0.117188 7.753906 0.15625 7.484375 0.1875 C 7.210938 0.226562 6.921875 0.25 6.609375 0.25 Z M 6.609375 0.25 "/></g></g></g><g fill="#004aad" fill-opacity="1"><g transform="translate(339.917382, 213.643653)"><g><path d="M 3.0625 5.140625 C 2.75 5.140625 2.457031 5.125 2.1875 5.09375 C 1.914062 5.0625 1.6875 5.019531 1.5 4.96875 C 1.269531 4.90625 1.054688 4.84375 0.859375 4.78125 L 0.859375 1.71875 C 0.972656 1.757812 1.101562 1.800781 1.25 1.84375 C 1.53125 1.914062 1.847656 1.953125 2.203125 1.953125 C 2.753906 1.953125 3.191406 1.8125 3.515625 1.53125 C 3.847656 1.257812 4.101562 0.910156 4.28125 0.484375 L 4.53125 -0.125 L -0.125 -12 L 3.4375 -12 L 6.25 -4.046875 L 6.375 -4.046875 L 9.0625 -12 L 12.625 -12 L 7.71875 0.984375 C 7.207031 2.335938 6.582031 3.367188 5.84375 4.078125 C 5.101562 4.785156 4.175781 5.140625 3.0625 5.140625 Z M 3.0625 5.140625 "/></g></g></g><g fill="#004aad" fill-opacity="1"><g transform="translate(351.188267, 213.643653)"><g><path d="M -0.375 2.078125 L 2.203125 -3.671875 L 5.015625 -2.078125 L 1.59375 3.1875 Z M -0.375 2.078125 "/></g></g></g><g fill="#004aad" fill-opacity="1"><g transform="translate(170.252794, 235.274173)"><g><path d="M 3.0625 5.140625 C 2.75 5.140625 2.457031 5.125 2.1875 5.09375 C 1.914062 5.0625 1.6875 5.019531 1.5 4.96875 C 1.269531 4.90625 1.054688 4.84375 0.859375 4.78125 L 0.859375 1.71875 C 0.972656 1.757812 1.101562 1.800781 1.25 1.84375 C 1.53125 1.914062 1.847656 1.953125 2.203125 1.953125 C 2.753906 1.953125 3.191406 1.8125 3.515625 1.53125 C 3.847656 1.257812 4.101562 0.910156 4.28125 0.484375 L 4.53125 -0.125 L -0.125 -12 L 3.4375 -12 L 6.25 -4.046875 L 6.375 -4.046875 L 9.0625 -12 L 12.625 -12 L 7.71875 0.984375 C 7.207031 2.335938 6.582031 3.367188 5.84375 4.078125 C 5.101562 4.785156 4.175781 5.140625 3.0625 5.140625 Z M 3.0625 5.140625 "/></g></g></g><g fill="#004aad" fill-opacity="1"><g transform="translate(181.523686, 235.274173)"><g><path d="M 7.234375 0.25 C 6.347656 0.25 5.515625 0.0859375 4.734375 -0.234375 C 3.960938 -0.566406 3.285156 -1.019531 2.703125 -1.59375 C 2.128906 -2.164062 1.675781 -2.828125 1.34375 -3.578125 C 1.019531 -4.328125 0.859375 -5.132812 0.859375 -6 C 0.859375 -6.851562 1.019531 -7.660156 1.34375 -8.421875 C 1.675781 -9.179688 2.128906 -9.84375 2.703125 -10.40625 C 3.285156 -10.976562 3.960938 -11.425781 4.734375 -11.75 C 5.515625 -12.082031 6.347656 -12.25 7.234375 -12.25 C 8.109375 -12.25 8.929688 -12.082031 9.703125 -11.75 C 10.484375 -11.425781 11.164062 -10.976562 11.75 -10.40625 C 12.332031 -9.84375 12.785156 -9.179688 13.109375 -8.421875 C 13.429688 -7.660156 13.59375 -6.851562 13.59375 -6 C 13.59375 -5.132812 13.429688 -4.328125 13.109375 -3.578125 C 12.785156 -2.828125 12.332031 -2.164062 11.75 -1.59375 C 11.164062 -1.019531 10.484375 -0.566406 9.703125 -0.234375 C 8.929688 0.0859375 8.109375 0.25 7.234375 0.25 Z M 7.234375 -2.8125 C 7.648438 -2.8125 8.046875 -2.894531 8.421875 -3.0625 C 8.796875 -3.226562 9.125 -3.445312 9.40625 -3.71875 C 9.6875 -4 9.90625 -4.332031 10.0625 -4.71875 C 10.21875 -5.113281 10.296875 -5.539062 10.296875 -6 C 10.296875 -6.457031 10.21875 -6.878906 10.0625 -7.265625 C 9.90625 -7.660156 9.6875 -8 9.40625 -8.28125 C 9.125 -8.5625 8.796875 -8.78125 8.421875 -8.9375 C 8.046875 -9.101562 7.648438 -9.1875 7.234375 -9.1875 C 6.804688 -9.1875 6.40625 -9.101562 6.03125 -8.9375 C 5.65625 -8.78125 5.328125 -8.5625 5.046875 -8.28125 C 4.765625 -8 4.546875 -7.660156 4.390625 -7.265625 C 4.242188 -6.878906 4.171875 -6.457031 4.171875 -6 C 4.171875 -5.539062 4.242188 -5.113281 4.390625 -4.71875 C 4.546875 -4.332031 4.765625 -4 5.046875 -3.71875 C 5.328125 -3.445312 5.65625 -3.226562 6.03125 -3.0625 C 6.40625 -2.894531 6.804688 -2.8125 7.234375 -2.8125 Z M 7.234375 -2.8125 "/></g></g></g><g fill="#004aad" fill-opacity="1"><g transform="translate(194.754844, 235.274173)"><g><path d="M 6 0.25 C 5.382812 0.25 4.8125 0.128906 4.28125 -0.109375 C 3.75 -0.347656 3.28125 -0.679688 2.875 -1.109375 C 2.476562 -1.546875 2.164062 -2.070312 1.9375 -2.6875 C 1.707031 -3.3125 1.59375 -4.007812 1.59375 -4.78125 L 1.59375 -12 L 4.90625 -12 L 4.90625 -5.265625 C 4.90625 -4.535156 5.097656 -3.960938 5.484375 -3.546875 C 5.878906 -3.140625 6.421875 -2.9375 7.109375 -2.9375 C 7.835938 -2.9375 8.445312 -3.1875 8.9375 -3.6875 C 9.425781 -4.1875 9.671875 -4.835938 9.671875 -5.640625 L 9.671875 -12 L 12.984375 -12 L 12.984375 0 L 9.671875 0 L 9.671875 -1.71875 L 9.5625 -1.71875 C 9.289062 -1.351562 8.988281 -1.023438 8.65625 -0.734375 C 8.351562 -0.492188 7.976562 -0.269531 7.53125 -0.0625 C 7.082031 0.144531 6.570312 0.25 6 0.25 Z M 6 0.25 "/></g></g></g><g fill="#004aad" fill-opacity="1"><g transform="translate(208.108518, 235.274173)"><g><path d="M 1.59375 -12 L 4.90625 -12 L 4.90625 -10.296875 L 5.015625 -10.296875 C 5.285156 -10.648438 5.585938 -10.972656 5.921875 -11.265625 C 6.222656 -11.515625 6.59375 -11.738281 7.03125 -11.9375 C 7.46875 -12.144531 7.984375 -12.25 8.578125 -12.25 L 8.8125 -12.25 L 8.8125 -8.703125 C 8.738281 -8.710938 8.648438 -8.726562 8.546875 -8.75 C 8.453125 -8.757812 8.332031 -8.769531 8.1875 -8.78125 C 8.050781 -8.800781 7.894531 -8.8125 7.71875 -8.8125 C 6.914062 -8.8125 6.242188 -8.523438 5.703125 -7.953125 C 5.171875 -7.390625 4.90625 -6.617188 4.90625 -5.640625 L 4.90625 0 L 1.59375 0 Z M 1.59375 -12 "/></g></g></g><g fill="#004aad" fill-opacity="1"><g transform="translate(216.193996, 235.274173)"><g/></g></g><g fill="#004aad" fill-opacity="1"><g transform="translate(220.113909, 235.274173)"><g><path d="M 1.59375 -12 L 4.90625 -12 L 4.90625 0 L 1.59375 0 Z M 3.234375 -13.59375 C 2.710938 -13.59375 2.265625 -13.773438 1.890625 -14.140625 C 1.523438 -14.515625 1.34375 -14.945312 1.34375 -15.4375 C 1.34375 -15.925781 1.53125 -16.351562 1.90625 -16.71875 C 2.28125 -17.082031 2.734375 -17.265625 3.265625 -17.265625 C 3.785156 -17.265625 4.226562 -17.082031 4.59375 -16.71875 C 4.957031 -16.351562 5.140625 -15.925781 5.140625 -15.4375 C 5.140625 -14.945312 4.953125 -14.515625 4.578125 -14.140625 C 4.203125 -13.773438 3.753906 -13.59375 3.234375 -13.59375 Z M 3.234375 -13.59375 "/></g></g></g><g fill="#004aad" fill-opacity="1"><g transform="translate(225.381504, 235.274173)"><g><path d="M 1.59375 -12 L 4.90625 -12 L 4.90625 -10.296875 L 5.015625 -10.296875 C 5.285156 -10.648438 5.585938 -10.972656 5.921875 -11.265625 C 6.222656 -11.515625 6.59375 -11.738281 7.03125 -11.9375 C 7.46875 -12.144531 7.984375 -12.25 8.578125 -12.25 C 9.179688 -12.25 9.75 -12.128906 10.28125 -11.890625 C 10.820312 -11.660156 11.289062 -11.328125 11.6875 -10.890625 C 12.09375 -10.453125 12.410156 -9.921875 12.640625 -9.296875 C 12.867188 -8.679688 12.984375 -7.992188 12.984375 -7.234375 L 12.984375 0 L 9.671875 0 L 9.671875 -6.734375 C 9.671875 -7.472656 9.472656 -8.046875 9.078125 -8.453125 C 8.691406 -8.859375 8.15625 -9.0625 7.46875 -9.0625 C 6.738281 -9.0625 6.128906 -8.8125 5.640625 -8.3125 C 5.148438 -7.820312 4.90625 -7.175781 4.90625 -6.375 L 4.90625 0 L 1.59375 0 Z M 1.59375 -12 "/></g></g></g><g fill="#004aad" fill-opacity="1"><g transform="translate(238.73518, 235.274173)"><g><path d="M 2.328125 -8.703125 L 0.484375 -8.703125 L 0.484375 -11.765625 L 2.328125 -11.765625 L 2.328125 -12.984375 C 2.328125 -14.398438 2.691406 -15.488281 3.421875 -16.25 C 4.160156 -17.007812 5.144531 -17.390625 6.375 -17.390625 C 6.675781 -17.390625 6.960938 -17.367188 7.234375 -17.328125 C 7.503906 -17.285156 7.738281 -17.242188 7.9375 -17.203125 C 8.164062 -17.128906 8.378906 -17.070312 8.578125 -17.03125 L 8.578125 -13.96875 C 8.460938 -14 8.332031 -14.039062 8.1875 -14.09375 C 8.050781 -14.125 7.898438 -14.148438 7.734375 -14.171875 C 7.578125 -14.191406 7.410156 -14.203125 7.234375 -14.203125 C 6.742188 -14.203125 6.351562 -14.054688 6.0625 -13.765625 C 5.78125 -13.472656 5.640625 -13.050781 5.640625 -12.5 L 5.640625 -11.765625 L 8.328125 -11.765625 L 8.328125 -8.703125 L 5.640625 -8.703125 L 5.640625 0 L 2.328125 0 Z M 2.328125 -8.703125 "/></g></g></g><g fill="#004aad" fill-opacity="1"><g transform="translate(246.575621, 235.274173)"><g><path d="M 1.59375 -12 L 4.90625 -12 L 4.90625 -10.296875 L 5.015625 -10.296875 C 5.285156 -10.648438 5.585938 -10.972656 5.921875 -11.265625 C 6.222656 -11.515625 6.59375 -11.738281 7.03125 -11.9375 C 7.46875 -12.144531 7.984375 -12.25 8.578125 -12.25 L 8.8125 -12.25 L 8.8125 -8.703125 C 8.738281 -8.710938 8.648438 -8.726562 8.546875 -8.75 C 8.453125 -8.757812 8.332031 -8.769531 8.1875 -8.78125 C 8.050781 -8.800781 7.894531 -8.8125 7.71875 -8.8125 C 6.914062 -8.8125 6.242188 -8.523438 5.703125 -7.953125 C 5.171875 -7.390625 4.90625 -6.617188 4.90625 -5.640625 L 4.90625 0 L 1.59375 0 Z M 1.59375 -12 "/></g></g></g><g fill="#004aad" fill-opacity="1"><g transform="translate(254.661099, 235.274173)"><g><path d="M 4.65625 0.25 C 4.101562 0.25 3.597656 0.164062 3.140625 0 C 2.691406 -0.175781 2.304688 -0.421875 1.984375 -0.734375 C 1.671875 -1.046875 1.425781 -1.410156 1.25 -1.828125 C 1.070312 -2.242188 0.984375 -2.695312 0.984375 -3.1875 C 0.984375 -4.164062 1.296875 -5 1.921875 -5.6875 C 2.546875 -6.382812 3.414062 -6.832031 4.53125 -7.03125 L 8.328125 -7.71875 C 8.265625 -8.144531 8.054688 -8.515625 7.703125 -8.828125 C 7.347656 -9.148438 6.863281 -9.3125 6.25 -9.3125 C 5.820312 -9.3125 5.441406 -9.238281 5.109375 -9.09375 C 4.773438 -8.957031 4.492188 -8.800781 4.265625 -8.625 C 3.984375 -8.425781 3.742188 -8.207031 3.546875 -7.96875 L 1.59375 -9.921875 C 1.9375 -10.347656 2.351562 -10.734375 2.84375 -11.078125 C 3.269531 -11.367188 3.785156 -11.632812 4.390625 -11.875 C 4.992188 -12.125 5.695312 -12.25 6.5 -12.25 C 7.257812 -12.25 7.953125 -12.125 8.578125 -11.875 C 9.210938 -11.632812 9.757812 -11.296875 10.21875 -10.859375 C 10.675781 -10.429688 11.023438 -9.925781 11.265625 -9.34375 C 11.515625 -8.769531 11.640625 -8.144531 11.640625 -7.46875 L 11.640625 0 L 8.328125 0 L 8.328125 -1.46875 L 8.203125 -1.46875 C 7.941406 -1.144531 7.640625 -0.859375 7.296875 -0.609375 C 7.003906 -0.378906 6.632812 -0.175781 6.1875 0 C 5.738281 0.164062 5.226562 0.25 4.65625 0.25 Z M 5.75 -2.453125 C 6.488281 -2.453125 7.101562 -2.695312 7.59375 -3.1875 C 8.082031 -3.6875 8.328125 -4.335938 8.328125 -5.140625 L 8.328125 -5.390625 L 5.640625 -4.90625 C 5.210938 -4.820312 4.878906 -4.671875 4.640625 -4.453125 C 4.398438 -4.242188 4.28125 -3.984375 4.28125 -3.671875 C 4.28125 -3.296875 4.398438 -3 4.640625 -2.78125 C 4.890625 -2.5625 5.257812 -2.453125 5.75 -2.453125 Z M 5.75 -2.453125 "/></g></g></g><g fill="#004aad" fill-opacity="1"><g transform="translate(266.667092, 235.274173)"><g><path d="M 5.515625 0.25 C 4.679688 0.25 3.945312 0.132812 3.3125 -0.09375 C 2.675781 -0.320312 2.132812 -0.578125 1.6875 -0.859375 C 1.164062 -1.171875 0.726562 -1.535156 0.375 -1.953125 L 2.328125 -4.046875 C 2.566406 -3.785156 2.851562 -3.554688 3.1875 -3.359375 C 3.457031 -3.179688 3.789062 -3.023438 4.1875 -2.890625 C 4.582031 -2.753906 5.023438 -2.6875 5.515625 -2.6875 C 6.066406 -2.6875 6.445312 -2.769531 6.65625 -2.9375 C 6.875 -3.101562 6.984375 -3.304688 6.984375 -3.546875 C 6.984375 -3.773438 6.832031 -3.96875 6.53125 -4.125 C 6.226562 -4.28125 5.847656 -4.429688 5.390625 -4.578125 C 4.929688 -4.722656 4.441406 -4.894531 3.921875 -5.09375 C 3.398438 -5.289062 2.910156 -5.535156 2.453125 -5.828125 C 1.992188 -6.117188 1.613281 -6.484375 1.3125 -6.921875 C 1.007812 -7.367188 0.859375 -7.921875 0.859375 -8.578125 C 0.859375 -9.066406 0.960938 -9.53125 1.171875 -9.96875 C 1.390625 -10.414062 1.695312 -10.804688 2.09375 -11.140625 C 2.488281 -11.484375 2.984375 -11.753906 3.578125 -11.953125 C 4.179688 -12.148438 4.867188 -12.25 5.640625 -12.25 C 6.398438 -12.25 7.070312 -12.148438 7.65625 -11.953125 C 8.238281 -11.753906 8.722656 -11.539062 9.109375 -11.3125 C 9.566406 -11.039062 9.960938 -10.738281 10.296875 -10.40625 L 8.328125 -8.328125 C 8.128906 -8.503906 7.894531 -8.664062 7.625 -8.8125 C 7.394531 -8.945312 7.109375 -9.0625 6.765625 -9.15625 C 6.429688 -9.257812 6.054688 -9.3125 5.640625 -9.3125 C 5.210938 -9.3125 4.898438 -9.234375 4.703125 -9.078125 C 4.503906 -8.921875 4.40625 -8.753906 4.40625 -8.578125 C 4.40625 -8.347656 4.554688 -8.15625 4.859375 -8 C 5.160156 -7.84375 5.539062 -7.691406 6 -7.546875 C 6.457031 -7.398438 6.945312 -7.226562 7.46875 -7.03125 C 7.988281 -6.832031 8.476562 -6.585938 8.9375 -6.296875 C 9.394531 -6.003906 9.773438 -5.632812 10.078125 -5.1875 C 10.378906 -4.75 10.53125 -4.203125 10.53125 -3.546875 C 10.53125 -3.023438 10.421875 -2.535156 10.203125 -2.078125 C 9.992188 -1.617188 9.675781 -1.21875 9.25 -0.875 C 8.832031 -0.539062 8.3125 -0.269531 7.6875 -0.0625 C 7.070312 0.144531 6.347656 0.25 5.515625 0.25 Z M 5.515625 0.25 "/></g></g></g><g fill="#004aad" fill-opacity="1"><g transform="translate(276.590319, 235.274173)"><g><path d="M 6.609375 0.25 C 5.390625 0.25 4.410156 -0.128906 3.671875 -0.890625 C 2.941406 -1.648438 2.578125 -2.742188 2.578125 -4.171875 L 2.578125 -8.703125 L 0.484375 -8.703125 L 0.484375 -11.765625 L 1.59375 -11.765625 C 2.488281 -11.765625 2.9375 -12.253906 2.9375 -13.234375 L 2.9375 -15.4375 L 5.875 -15.4375 L 5.875 -11.765625 L 8.578125 -11.765625 L 8.578125 -8.703125 L 5.875 -8.703125 L 5.875 -4.65625 C 5.875 -4.101562 6.015625 -3.675781 6.296875 -3.375 C 6.585938 -3.082031 6.976562 -2.9375 7.46875 -2.9375 C 7.832031 -2.9375 8.148438 -2.976562 8.421875 -3.0625 C 8.578125 -3.09375 8.707031 -3.132812 8.8125 -3.1875 L 8.8125 -0.125 C 8.625 -0.0625 8.414062 0.00390625 8.1875 0.078125 C 7.988281 0.117188 7.753906 0.15625 7.484375 0.1875 C 7.210938 0.226562 6.921875 0.25 6.609375 0.25 Z M 6.609375 0.25 "/></g></g></g><g fill="#004aad" fill-opacity="1"><g transform="translate(285.165863, 235.274173)"><g><path d="M 1.59375 -12 L 4.90625 -12 L 4.90625 -10.296875 L 5.015625 -10.296875 C 5.285156 -10.648438 5.585938 -10.972656 5.921875 -11.265625 C 6.222656 -11.515625 6.59375 -11.738281 7.03125 -11.9375 C 7.46875 -12.144531 7.984375 -12.25 8.578125 -12.25 L 8.8125 -12.25 L 8.8125 -8.703125 C 8.738281 -8.710938 8.648438 -8.726562 8.546875 -8.75 C 8.453125 -8.757812 8.332031 -8.769531 8.1875 -8.78125 C 8.050781 -8.800781 7.894531 -8.8125 7.71875 -8.8125 C 6.914062 -8.8125 6.242188 -8.523438 5.703125 -7.953125 C 5.171875 -7.390625 4.90625 -6.617188 4.90625 -5.640625 L 4.90625 0 L 1.59375 0 Z M 1.59375 -12 "/></g></g></g><g fill="#004aad" fill-opacity="1"><g transform="translate(293.251341, 235.274173)"><g><path d="M 6 0.25 C 5.382812 0.25 4.8125 0.128906 4.28125 -0.109375 C 3.75 -0.347656 3.28125 -0.679688 2.875 -1.109375 C 2.476562 -1.546875 2.164062 -2.070312 1.9375 -2.6875 C 1.707031 -3.3125 1.59375 -4.007812 1.59375 -4.78125 L 1.59375 -12 L 4.90625 -12 L 4.90625 -5.265625 C 4.90625 -4.535156 5.097656 -3.960938 5.484375 -3.546875 C 5.878906 -3.140625 6.421875 -2.9375 7.109375 -2.9375 C 7.835938 -2.9375 8.445312 -3.1875 8.9375 -3.6875 C 9.425781 -4.1875 9.671875 -4.835938 9.671875 -5.640625 L 9.671875 -12 L 12.984375 -12 L 12.984375 0 L 9.671875 0 L 9.671875 -1.71875 L 9.5625 -1.71875 C 9.289062 -1.351562 8.988281 -1.023438 8.65625 -0.734375 C 8.351562 -0.492188 7.976562 -0.269531 7.53125 -0.0625 C 7.082031 0.144531 6.570312 0.25 6 0.25 Z M 6 0.25 "/></g></g></g><g fill="#004aad" fill-opacity="1"><g transform="translate(306.605017, 235.274173)"><g><path d="M 7.234375 0.25 C 6.347656 0.25 5.515625 0.0859375 4.734375 -0.234375 C 3.960938 -0.566406 3.285156 -1.019531 2.703125 -1.59375 C 2.128906 -2.164062 1.675781 -2.828125 1.34375 -3.578125 C 1.019531 -4.328125 0.859375 -5.132812 0.859375 -6 C 0.859375 -6.851562 1.019531 -7.660156 1.34375 -8.421875 C 1.675781 -9.179688 2.128906 -9.84375 2.703125 -10.40625 C 3.285156 -10.976562 3.960938 -11.425781 4.734375 -11.75 C 5.515625 -12.082031 6.347656 -12.25 7.234375 -12.25 C 8.097656 -12.25 8.835938 -12.117188 9.453125 -11.859375 C 10.078125 -11.609375 10.601562 -11.332031 11.03125 -11.03125 C 11.519531 -10.664062 11.925781 -10.253906 12.25 -9.796875 L 10.171875 -7.71875 C 9.941406 -8 9.679688 -8.242188 9.390625 -8.453125 C 9.117188 -8.628906 8.800781 -8.796875 8.4375 -8.953125 C 8.082031 -9.109375 7.679688 -9.1875 7.234375 -9.1875 C 6.804688 -9.1875 6.40625 -9.101562 6.03125 -8.9375 C 5.65625 -8.78125 5.328125 -8.5625 5.046875 -8.28125 C 4.765625 -8 4.546875 -7.660156 4.390625 -7.265625 C 4.242188 -6.878906 4.171875 -6.457031 4.171875 -6 C 4.171875 -5.539062 4.242188 -5.113281 4.390625 -4.71875 C 4.546875 -4.332031 4.765625 -4 5.046875 -3.71875 C 5.328125 -3.445312 5.65625 -3.226562 6.03125 -3.0625 C 6.40625 -2.894531 6.804688 -2.8125 7.234375 -2.8125 C 7.679688 -2.8125 8.082031 -2.890625 8.4375 -3.046875 C 8.800781 -3.203125 9.117188 -3.367188 9.390625 -3.546875 C 9.679688 -3.765625 9.941406 -4.007812 10.171875 -4.28125 L 12.25 -2.203125 C 11.925781 -1.742188 11.519531 -1.335938 11.03125 -0.984375 C 10.601562 -0.671875 10.078125 -0.382812 9.453125 -0.125 C 8.835938 0.125 8.097656 0.25 7.234375 0.25 Z M 7.234375 0.25 "/></g></g></g><g fill="#004aad" fill-opacity="1"><g transform="translate(318.120943, 235.274173)"><g><path d="M 6.609375 0.25 C 5.390625 0.25 4.410156 -0.128906 3.671875 -0.890625 C 2.941406 -1.648438 2.578125 -2.742188 2.578125 -4.171875 L 2.578125 -8.703125 L 0.484375 -8.703125 L 0.484375 -11.765625 L 1.59375 -11.765625 C 2.488281 -11.765625 2.9375 -12.253906 2.9375 -13.234375 L 2.9375 -15.4375 L 5.875 -15.4375 L 5.875 -11.765625 L 8.578125 -11.765625 L 8.578125 -8.703125 L 5.875 -8.703125 L 5.875 -4.65625 C 5.875 -4.101562 6.015625 -3.675781 6.296875 -3.375 C 6.585938 -3.082031 6.976562 -2.9375 7.46875 -2.9375 C 7.832031 -2.9375 8.148438 -2.976562 8.421875 -3.0625 C 8.578125 -3.09375 8.707031 -3.132812 8.8125 -3.1875 L 8.8125 -0.125 C 8.625 -0.0625 8.414062 0.00390625 8.1875 0.078125 C 7.988281 0.117188 7.753906 0.15625 7.484375 0.1875 C 7.210938 0.226562 6.921875 0.25 6.609375 0.25 Z M 6.609375 0.25 "/></g></g></g><g fill="#004aad" fill-opacity="1"><g transform="translate(326.696479, 235.274173)"><g><path d="M 6 0.25 C 5.382812 0.25 4.8125 0.128906 4.28125 -0.109375 C 3.75 -0.347656 3.28125 -0.679688 2.875 -1.109375 C 2.476562 -1.546875 2.164062 -2.070312 1.9375 -2.6875 C 1.707031 -3.3125 1.59375 -4.007812 1.59375 -4.78125 L 1.59375 -12 L 4.90625 -12 L 4.90625 -5.265625 C 4.90625 -4.535156 5.097656 -3.960938 5.484375 -3.546875 C 5.878906 -3.140625 6.421875 -2.9375 7.109375 -2.9375 C 7.835938 -2.9375 8.445312 -3.1875 8.9375 -3.6875 C 9.425781 -4.1875 9.671875 -4.835938 9.671875 -5.640625 L 9.671875 -12 L 12.984375 -12 L 12.984375 0 L 9.671875 0 L 9.671875 -1.71875 L 9.5625 -1.71875 C 9.289062 -1.351562 8.988281 -1.023438 8.65625 -0.734375 C 8.351562 -0.492188 7.976562 -0.269531 7.53125 -0.0625 C 7.082031 0.144531 6.570312 0.25 6 0.25 Z M 6 0.25 "/></g></g></g><g fill="#004aad" fill-opacity="1"><g transform="translate(340.050147, 235.274173)"><g><path d="M 1.59375 -12 L 4.90625 -12 L 4.90625 -10.296875 L 5.015625 -10.296875 C 5.285156 -10.648438 5.585938 -10.972656 5.921875 -11.265625 C 6.222656 -11.515625 6.59375 -11.738281 7.03125 -11.9375 C 7.46875 -12.144531 7.984375 -12.25 8.578125 -12.25 L 8.8125 -12.25 L 8.8125 -8.703125 C 8.738281 -8.710938 8.648438 -8.726562 8.546875 -8.75 C 8.453125 -8.757812 8.332031 -8.769531 8.1875 -8.78125 C 8.050781 -8.800781 7.894531 -8.8125 7.71875 -8.8125 C 6.914062 -8.8125 6.242188 -8.523438 5.703125 -7.953125 C 5.171875 -7.390625 4.90625 -6.617188 4.90625 -5.640625 L 4.90625 0 L 1.59375 0 Z M 1.59375 -12 "/></g></g></g><g fill="#004aad" fill-opacity="1"><g transform="translate(348.135616, 235.274173)"><g><path d="M 7.234375 0.25 C 6.347656 0.25 5.515625 0.0859375 4.734375 -0.234375 C 3.960938 -0.566406 3.285156 -1.019531 2.703125 -1.59375 C 2.128906 -2.164062 1.675781 -2.828125 1.34375 -3.578125 C 1.019531 -4.328125 0.859375 -5.132812 0.859375 -6 C 0.859375 -6.851562 1.019531 -7.660156 1.34375 -8.421875 C 1.675781 -9.179688 2.125 -9.84375 2.6875 -10.40625 C 3.257812 -10.976562 3.921875 -11.425781 4.671875 -11.75 C 5.429688 -12.082031 6.242188 -12.25 7.109375 -12.25 C 7.941406 -12.25 8.71875 -12.085938 9.4375 -11.765625 C 10.164062 -11.453125 10.800781 -11.023438 11.34375 -10.484375 C 11.882812 -9.941406 12.3125 -9.304688 12.625 -8.578125 C 12.945312 -7.859375 13.109375 -7.082031 13.109375 -6.25 C 13.109375 -6.019531 13.097656 -5.816406 13.078125 -5.640625 C 13.066406 -5.472656 13.050781 -5.320312 13.03125 -5.1875 C 13.019531 -5.03125 13.003906 -4.894531 12.984375 -4.78125 L 4.28125 -4.78125 C 4.46875 -4.21875 4.816406 -3.726562 5.328125 -3.3125 C 5.835938 -2.894531 6.550781 -2.6875 7.46875 -2.6875 C 7.988281 -2.6875 8.445312 -2.753906 8.84375 -2.890625 C 9.238281 -3.023438 9.570312 -3.179688 9.84375 -3.359375 C 10.15625 -3.554688 10.425781 -3.785156 10.65625 -4.046875 L 12.375 -1.71875 C 12.007812 -1.351562 11.566406 -1.023438 11.046875 -0.734375 C 10.609375 -0.492188 10.070312 -0.269531 9.4375 -0.0625 C 8.800781 0.144531 8.066406 0.25 7.234375 0.25 Z M 9.671875 -7.234375 C 9.492188 -7.785156 9.171875 -8.269531 8.703125 -8.6875 C 8.242188 -9.101562 7.671875 -9.3125 6.984375 -9.3125 C 6.296875 -9.3125 5.71875 -9.101562 5.25 -8.6875 C 4.789062 -8.269531 4.46875 -7.785156 4.28125 -7.234375 Z M 9.671875 -7.234375 "/></g></g></g><g fill="#004aad" fill-opacity="1"><g transform="translate(360.876701, 235.274173)"><g><path d="M 2.9375 0.25 C 2.382812 0.25 1.921875 0.0625 1.546875 -0.3125 C 1.171875 -0.6875 0.984375 -1.15625 0.984375 -1.71875 C 0.984375 -2.269531 1.171875 -2.734375 1.546875 -3.109375 C 1.921875 -3.484375 2.382812 -3.671875 2.9375 -3.671875 C 3.488281 -3.671875 3.953125 -3.484375 4.328125 -3.109375 C 4.710938 -2.734375 4.90625 -2.269531 4.90625 -1.71875 C 4.90625 -1.15625 4.710938 -0.6875 4.328125 -0.3125 C 3.953125 0.0625 3.488281 0.25 2.9375 0.25 Z M 2.9375 0.25 "/></g></g></g></svg>