<svg xmlns="http://www.w3.org/2000/svg" xmlns:xlink="http://www.w3.org/1999/xlink" width="500" zoomAndPan="magnify" viewBox="0 0 375 374.999991" height="500" preserveAspectRatio="xMidYMid meet" version="1.0"><defs><g/><clipPath id="b3b46e21a5"><path d="M 7.59375 108.996094 L 155.34375 108.996094 L 155.34375 234.996094 L 7.59375 234.996094 Z M 7.59375 108.996094 " clip-rule="nonzero"/></clipPath></defs><rect x="-37.5" width="450" fill="#ffffff" y="-37.499999" height="449.999989" fill-opacity="1"/><rect x="-37.5" width="450" fill="#004aad" y="-37.499999" height="449.999989" fill-opacity="1"/><path fill="#ffffff" d="M 115.484375 170.925781 C 115.484375 173.308594 113.550781 175.242188 111.164062 175.242188 C 108.78125 175.242188 106.84375 173.308594 106.84375 170.925781 C 106.84375 168.539062 108.78125 166.605469 111.164062 166.605469 C 113.550781 166.605469 115.484375 168.539062 115.484375 170.925781 Z M 115.484375 170.925781 " fill-opacity="1" fill-rule="nonzero"/><g clip-path="url(#b3b46e21a5)"><path fill="#ffffff" d="M 58.652344 151.554688 L 58.640625 148.96875 C 64.230469 147.371094 69.28125 144.167969 73.136719 139.71875 C 77.867188 134.253906 80.472656 127.261719 80.472656 120.023438 L 80.472656 108.988281 L 57.726562 111.019531 C 52.597656 111.472656 47.816406 113.695312 44.164062 117.1875 C 40.507812 113.695312 35.722656 111.472656 30.597656 111.019531 L 7.851562 108.988281 L 7.851562 120.027344 C 7.851562 127.261719 10.457031 134.257812 15.191406 139.722656 C 19.046875 144.167969 24.097656 147.375 29.6875 148.96875 L 29.65625 155.875 C 29.65625 184.871094 49.449219 209.914062 77.234375 216.816406 C 77.246094 221.558594 78.117188 226.5625 80.394531 231.527344 L 82.035156 235.109375 L 85.753906 233.804688 C 94.3125 230.789062 101.328125 225.089844 106.351562 217.128906 C 134.808594 210.707031 155.261719 185.257812 155.261719 155.875 L 155.261719 151.554688 Z M 111.355469 206.65625 C 112.898438 202.242188 113.644531 198.375 113.988281 195.984375 C 122.65625 191.316406 129.632812 183.929688 133.789062 174.964844 L 125.953125 171.335938 C 122.304688 179.203125 115.972656 185.574219 108.125 189.269531 L 105.816406 190.359375 L 105.65625 192.90625 C 105.640625 193.140625 104.054688 215.058594 86.816406 223.960938 C 82.898438 209.351562 92.792969 194.519531 92.902344 194.359375 L 89.335938 191.925781 L 85.773438 189.484375 C 85.414062 190.011719 80.242188 197.699219 78.125 208.125 C 54.796875 201.761719 38.292969 180.464844 38.292969 155.894531 L 38.355469 141.796875 L 34.671875 141.234375 C 29.660156 140.46875 25.058594 137.921875 21.71875 134.066406 C 18.347656 130.171875 16.488281 125.183594 16.488281 120.027344 L 16.488281 118.429688 L 29.832031 119.621094 C 34.214844 120.011719 38.1875 122.496094 40.464844 126.257812 L 40.578125 126.445312 L 44.515625 131.691406 L 47.863281 126.257812 C 50.136719 122.492188 54.109375 120.011719 58.492188 119.621094 L 71.835938 118.429688 L 71.835938 120.027344 C 71.835938 125.183594 69.980469 130.171875 66.605469 134.066406 C 63.265625 137.921875 58.667969 140.464844 53.65625 141.234375 L 49.972656 141.796875 L 50.054688 160.191406 L 146.453125 160.191406 C 144.773438 181.273438 130.90625 199.390625 111.355469 206.65625 Z M 111.355469 206.65625 " fill-opacity="1" fill-rule="nonzero"/></g><g fill="#ffffff" fill-opacity="1"><g transform="translate(168.024164, 174.799616)"><g><path d="M 12.78125 0.5 C 11.34375 0.5 9.957031 0.191406 8.625 -0.421875 C 7.289062 -1.046875 6.113281 -1.925781 5.09375 -3.0625 C 4.070312 -4.195312 3.257812 -5.550781 2.65625 -7.125 C 2.050781 -8.695312 1.75 -10.414062 1.75 -12.28125 C 1.75 -14.15625 2.050781 -15.878906 2.65625 -17.453125 C 3.257812 -19.023438 4.070312 -20.367188 5.09375 -21.484375 C 6.113281 -22.609375 7.289062 -23.484375 8.625 -24.109375 C 9.957031 -24.742188 11.34375 -25.0625 12.78125 -25.0625 C 14.082031 -25.0625 15.21875 -24.851562 16.1875 -24.4375 C 17.164062 -24.019531 17.988281 -23.5625 18.65625 -23.0625 C 19.425781 -22.457031 20.0625 -21.789062 20.5625 -21.0625 L 20.8125 -21.0625 L 20.8125 -35.09375 L 27.578125 -35.09375 L 27.578125 0 L 20.8125 0 L 20.8125 -3.515625 L 20.5625 -3.515625 C 20.0625 -2.773438 19.425781 -2.101562 18.65625 -1.5 C 17.988281 -1 17.164062 -0.539062 16.1875 -0.125 C 15.21875 0.289062 14.082031 0.5 12.78125 0.5 Z M 14.796875 -5.765625 C 15.660156 -5.765625 16.476562 -5.929688 17.25 -6.265625 C 18.019531 -6.597656 18.6875 -7.046875 19.25 -7.609375 C 19.820312 -8.179688 20.265625 -8.867188 20.578125 -9.671875 C 20.898438 -10.472656 21.0625 -11.34375 21.0625 -12.28125 C 21.0625 -13.21875 20.898438 -14.085938 20.578125 -14.890625 C 20.265625 -15.691406 19.820312 -16.375 19.25 -16.9375 C 18.6875 -17.507812 18.019531 -17.960938 17.25 -18.296875 C 16.476562 -18.628906 15.660156 -18.796875 14.796875 -18.796875 C 13.921875 -18.796875 13.097656 -18.628906 12.328125 -18.296875 C 11.566406 -17.960938 10.898438 -17.507812 10.328125 -16.9375 C 9.765625 -16.375 9.320312 -15.691406 9 -14.890625 C 8.6875 -14.085938 8.53125 -13.21875 8.53125 -12.28125 C 8.53125 -11.34375 8.6875 -10.472656 9 -9.671875 C 9.320312 -8.867188 9.765625 -8.179688 10.328125 -7.609375 C 10.898438 -7.046875 11.566406 -6.597656 12.328125 -6.265625 C 13.097656 -5.929688 13.921875 -5.765625 14.796875 -5.765625 Z M 14.796875 -5.765625 "/></g></g></g><g fill="#ffffff" fill-opacity="1"><g transform="translate(196.601467, 174.799616)"><g><path d="M 14.796875 0.5 C 12.984375 0.5 11.285156 0.164062 9.703125 -0.5 C 8.117188 -1.164062 6.734375 -2.082031 5.546875 -3.25 C 4.359375 -4.425781 3.425781 -5.78125 2.75 -7.3125 C 2.082031 -8.851562 1.75 -10.507812 1.75 -12.28125 C 1.75 -14.019531 2.082031 -15.664062 2.75 -17.21875 C 3.425781 -18.78125 4.347656 -20.144531 5.515625 -21.3125 C 6.679688 -22.476562 8.035156 -23.394531 9.578125 -24.0625 C 11.117188 -24.726562 12.773438 -25.0625 14.546875 -25.0625 C 16.242188 -25.0625 17.835938 -24.734375 19.328125 -24.078125 C 20.816406 -23.429688 22.113281 -22.554688 23.21875 -21.453125 C 24.320312 -20.359375 25.195312 -19.066406 25.84375 -17.578125 C 26.5 -16.085938 26.828125 -14.488281 26.828125 -12.78125 C 26.828125 -12.3125 26.804688 -11.898438 26.765625 -11.546875 C 26.734375 -11.203125 26.703125 -10.894531 26.671875 -10.625 C 26.640625 -10.289062 26.609375 -10.007812 26.578125 -9.78125 L 8.78125 -9.78125 C 9.144531 -8.644531 9.851562 -7.648438 10.90625 -6.796875 C 11.957031 -5.941406 13.421875 -5.515625 15.296875 -5.515625 C 16.359375 -5.515625 17.289062 -5.644531 18.09375 -5.90625 C 18.894531 -6.175781 19.582031 -6.5 20.15625 -6.875 C 20.789062 -7.269531 21.34375 -7.734375 21.8125 -8.265625 L 25.328125 -3.515625 C 24.585938 -2.773438 23.679688 -2.101562 22.609375 -1.5 C 21.710938 -1 20.609375 -0.539062 19.296875 -0.125 C 17.992188 0.289062 16.492188 0.5 14.796875 0.5 Z M 19.8125 -14.796875 C 19.4375 -15.929688 18.769531 -16.921875 17.8125 -17.765625 C 16.863281 -18.617188 15.691406 -19.046875 14.296875 -19.046875 C 12.890625 -19.046875 11.707031 -18.617188 10.75 -17.765625 C 9.800781 -16.921875 9.144531 -15.929688 8.78125 -14.796875 Z M 19.8125 -14.796875 "/></g></g></g><g fill="#ffffff" fill-opacity="1"><g transform="translate(222.671954, 174.799616)"><g><path d="M 3.265625 -24.5625 L 10.03125 -24.5625 L 10.03125 -21.0625 L 10.28125 -21.0625 C 10.78125 -21.789062 11.414062 -22.457031 12.1875 -23.0625 C 12.851562 -23.5625 13.660156 -24.019531 14.609375 -24.4375 C 15.566406 -24.851562 16.710938 -25.0625 18.046875 -25.0625 C 19.484375 -25.0625 20.867188 -24.742188 22.203125 -24.109375 C 23.546875 -23.484375 24.726562 -22.609375 25.75 -21.484375 C 26.769531 -20.367188 27.578125 -19.023438 28.171875 -17.453125 C 28.773438 -15.878906 29.078125 -14.15625 29.078125 -12.28125 C 29.078125 -10.414062 28.773438 -8.695312 28.171875 -7.125 C 27.578125 -5.550781 26.769531 -4.195312 25.75 -3.0625 C 24.726562 -1.925781 23.546875 -1.046875 22.203125 -0.421875 C 20.867188 0.191406 19.484375 0.5 18.046875 0.5 C 16.710938 0.5 15.566406 0.289062 14.609375 -0.125 C 13.660156 -0.539062 12.851562 -1 12.1875 -1.5 C 11.414062 -2.101562 10.78125 -2.773438 10.28125 -3.515625 L 10.03125 -3.515625 L 10.03125 10.53125 L 3.265625 10.53125 Z M 16.046875 -5.765625 C 16.910156 -5.765625 17.726562 -5.929688 18.5 -6.265625 C 19.269531 -6.597656 19.9375 -7.046875 20.5 -7.609375 C 21.070312 -8.179688 21.515625 -8.867188 21.828125 -9.671875 C 22.148438 -10.472656 22.3125 -11.34375 22.3125 -12.28125 C 22.3125 -13.21875 22.148438 -14.085938 21.828125 -14.890625 C 21.515625 -15.691406 21.070312 -16.375 20.5 -16.9375 C 19.9375 -17.507812 19.269531 -17.960938 18.5 -18.296875 C 17.726562 -18.628906 16.910156 -18.796875 16.046875 -18.796875 C 15.171875 -18.796875 14.347656 -18.628906 13.578125 -18.296875 C 12.816406 -17.960938 12.148438 -17.507812 11.578125 -16.9375 C 11.015625 -16.375 10.570312 -15.691406 10.25 -14.890625 C 9.9375 -14.085938 9.78125 -13.21875 9.78125 -12.28125 C 9.78125 -11.34375 9.9375 -10.472656 10.25 -9.671875 C 10.570312 -8.867188 11.015625 -8.179688 11.578125 -7.609375 C 12.148438 -7.046875 12.816406 -6.597656 13.578125 -6.265625 C 14.347656 -5.929688 15.171875 -5.765625 16.046875 -5.765625 Z M 16.046875 -5.765625 "/></g></g></g><g fill="#ffffff" fill-opacity="1"><g transform="translate(250.998578, 174.799616)"><g><path d="M 3.265625 -24.5625 L 10.03125 -24.5625 L 10.03125 0 L 3.265625 0 Z M 6.625 -27.828125 C 5.550781 -27.828125 4.632812 -28.203125 3.875 -28.953125 C 3.125 -29.703125 2.75 -30.582031 2.75 -31.59375 C 2.75 -32.59375 3.132812 -33.46875 3.90625 -34.21875 C 4.675781 -34.96875 5.597656 -35.34375 6.671875 -35.34375 C 7.734375 -35.34375 8.640625 -34.96875 9.390625 -34.21875 C 10.148438 -33.46875 10.53125 -32.59375 10.53125 -31.59375 C 10.53125 -30.582031 10.144531 -29.703125 9.375 -28.953125 C 8.601562 -28.203125 7.6875 -27.828125 6.625 -27.828125 Z M 6.625 -27.828125 "/></g></g></g><g fill="#ffffff" fill-opacity="1"><g transform="translate(261.777571, 174.799616)"><g><path d="M 3.265625 -24.5625 L 10.03125 -24.5625 L 10.03125 -21.0625 L 10.28125 -21.0625 C 10.8125 -21.789062 11.429688 -22.457031 12.140625 -23.0625 C 12.734375 -23.5625 13.484375 -24.019531 14.390625 -24.4375 C 15.296875 -24.851562 16.347656 -25.0625 17.546875 -25.0625 C 18.785156 -25.0625 19.957031 -24.816406 21.0625 -24.328125 C 22.164062 -23.847656 23.125 -23.164062 23.9375 -22.28125 C 24.757812 -21.394531 25.40625 -20.316406 25.875 -19.046875 C 26.34375 -17.773438 26.578125 -16.359375 26.578125 -14.796875 L 26.578125 0 L 19.8125 0 L 19.8125 -13.78125 C 19.8125 -15.289062 19.410156 -16.460938 18.609375 -17.296875 C 17.804688 -18.128906 16.703125 -18.546875 15.296875 -18.546875 C 13.785156 -18.546875 12.53125 -18.035156 11.53125 -17.015625 C 10.53125 -16.003906 10.03125 -14.675781 10.03125 -13.03125 L 10.03125 0 L 3.265625 0 Z M 3.265625 -24.5625 "/></g></g></g><g fill="#ffffff" fill-opacity="1"><g transform="translate(289.101478, 174.799616)"><g><path d="M 4.765625 -17.796875 L 1 -17.796875 L 1 -24.0625 L 4.765625 -24.0625 L 4.765625 -26.578125 C 4.765625 -29.484375 5.515625 -31.710938 7.015625 -33.265625 C 8.523438 -34.816406 10.53125 -35.59375 13.03125 -35.59375 C 13.664062 -35.59375 14.257812 -35.550781 14.8125 -35.46875 C 15.363281 -35.382812 15.84375 -35.296875 16.25 -35.203125 C 16.71875 -35.066406 17.148438 -34.945312 17.546875 -34.84375 L 17.546875 -28.578125 C 17.316406 -28.648438 17.050781 -28.734375 16.75 -28.828125 C 16.476562 -28.898438 16.175781 -28.957031 15.84375 -29 C 15.507812 -29.050781 15.160156 -29.078125 14.796875 -29.078125 C 13.785156 -29.078125 12.988281 -28.773438 12.40625 -28.171875 C 11.820312 -27.578125 11.53125 -26.710938 11.53125 -25.578125 L 11.53125 -24.0625 L 17.046875 -24.0625 L 17.046875 -17.796875 L 11.53125 -17.796875 L 11.53125 0 L 4.765625 0 Z M 4.765625 -17.796875 "/></g></g></g><g fill="#ffffff" fill-opacity="1"><g transform="translate(305.144747, 174.799616)"><g><path d="M 3.265625 -24.5625 L 10.03125 -24.5625 L 10.03125 -21.0625 L 10.28125 -21.0625 C 10.8125 -21.789062 11.429688 -22.457031 12.140625 -23.0625 C 12.734375 -23.5625 13.484375 -24.019531 14.390625 -24.4375 C 15.296875 -24.851562 16.347656 -25.0625 17.546875 -25.0625 L 18.046875 -25.0625 L 18.046875 -17.796875 C 17.878906 -17.828125 17.695312 -17.863281 17.5 -17.90625 C 17.300781 -17.9375 17.054688 -17.96875 16.765625 -18 C 16.484375 -18.03125 16.160156 -18.046875 15.796875 -18.046875 C 14.160156 -18.046875 12.789062 -17.460938 11.6875 -16.296875 C 10.582031 -15.128906 10.03125 -13.539062 10.03125 -11.53125 L 10.03125 0 L 3.265625 0 Z M 3.265625 -24.5625 "/></g></g></g><g fill="#ffffff" fill-opacity="1"><g transform="translate(321.689381, 174.799616)"><g><path d="M 9.53125 0.5 C 8.394531 0.5 7.363281 0.328125 6.4375 -0.015625 C 5.519531 -0.367188 4.734375 -0.863281 4.078125 -1.5 C 3.429688 -2.132812 2.921875 -2.878906 2.546875 -3.734375 C 2.179688 -4.585938 2 -5.515625 2 -6.515625 C 2 -8.523438 2.640625 -10.238281 3.921875 -11.65625 C 5.210938 -13.070312 7 -13.984375 9.28125 -14.390625 L 17.046875 -15.796875 C 16.910156 -16.660156 16.484375 -17.414062 15.765625 -18.0625 C 15.046875 -18.71875 14.050781 -19.046875 12.78125 -19.046875 C 11.914062 -19.046875 11.140625 -18.90625 10.453125 -18.625 C 9.765625 -18.34375 9.1875 -18.019531 8.71875 -17.65625 C 8.15625 -17.25 7.671875 -16.796875 7.265625 -16.296875 L 3.265625 -20.3125 C 3.960938 -21.175781 4.8125 -21.957031 5.8125 -22.65625 C 6.6875 -23.257812 7.738281 -23.8125 8.96875 -24.3125 C 10.207031 -24.8125 11.644531 -25.0625 13.28125 -25.0625 C 14.851562 -25.0625 16.28125 -24.8125 17.5625 -24.3125 C 18.851562 -23.8125 19.96875 -23.117188 20.90625 -22.234375 C 21.84375 -21.347656 22.5625 -20.3125 23.0625 -19.125 C 23.5625 -17.9375 23.8125 -16.660156 23.8125 -15.296875 L 23.8125 0 L 17.046875 0 L 17.046875 -3.015625 L 16.796875 -3.015625 C 16.265625 -2.335938 15.644531 -1.75 14.9375 -1.25 C 14.34375 -0.78125 13.582031 -0.367188 12.65625 -0.015625 C 11.738281 0.328125 10.695312 0.5 9.53125 0.5 Z M 11.78125 -5.015625 C 13.289062 -5.015625 14.546875 -5.523438 15.546875 -6.546875 C 16.546875 -7.566406 17.046875 -8.894531 17.046875 -10.53125 L 17.046875 -11.03125 L 11.53125 -10.03125 C 10.664062 -9.863281 9.988281 -9.5625 9.5 -9.125 C 9.019531 -8.6875 8.78125 -8.148438 8.78125 -7.515625 C 8.78125 -6.753906 9.03125 -6.144531 9.53125 -5.6875 C 10.03125 -5.238281 10.78125 -5.015625 11.78125 -5.015625 Z M 11.78125 -5.015625 "/></g></g></g><g fill="#ffffff" fill-opacity="1"><g transform="translate(159.877242, 203.258257)"><g><path d="M 7.046875 -6.765625 L -0.140625 -18.96875 L 4.609375 -18.96875 L 9.015625 -10.84375 L 9.125 -10.84375 L 13.546875 -18.96875 L 18.28125 -18.96875 L 11.109375 -6.765625 L 11.109375 0 L 7.046875 0 Z M 7.046875 -6.765625 "/></g></g></g><g fill="#ffffff" fill-opacity="1"><g transform="translate(176.674198, 203.258257)"><g><path d="M 8 0.265625 C 7.019531 0.265625 6.097656 0.0859375 5.234375 -0.265625 C 4.378906 -0.628906 3.628906 -1.125 2.984375 -1.75 C 2.347656 -2.382812 1.847656 -3.117188 1.484375 -3.953125 C 1.128906 -4.785156 0.953125 -5.679688 0.953125 -6.640625 C 0.953125 -7.578125 1.128906 -8.460938 1.484375 -9.296875 C 1.847656 -10.140625 2.347656 -10.878906 2.984375 -11.515625 C 3.628906 -12.148438 4.378906 -12.644531 5.234375 -13 C 6.097656 -13.363281 7.019531 -13.546875 8 -13.546875 C 8.96875 -13.546875 9.878906 -13.363281 10.734375 -13 C 11.597656 -12.644531 12.347656 -12.148438 12.984375 -11.515625 C 13.628906 -10.878906 14.128906 -10.140625 14.484375 -9.296875 C 14.847656 -8.460938 15.03125 -7.578125 15.03125 -6.640625 C 15.03125 -5.679688 14.847656 -4.785156 14.484375 -3.953125 C 14.128906 -3.117188 13.628906 -2.382812 12.984375 -1.75 C 12.347656 -1.125 11.597656 -0.628906 10.734375 -0.265625 C 9.878906 0.0859375 8.96875 0.265625 8 0.265625 Z M 8 -3.109375 C 8.46875 -3.109375 8.90625 -3.195312 9.3125 -3.375 C 9.726562 -3.5625 10.085938 -3.804688 10.390625 -4.109375 C 10.703125 -4.421875 10.941406 -4.789062 11.109375 -5.21875 C 11.285156 -5.65625 11.375 -6.128906 11.375 -6.640625 C 11.375 -7.140625 11.285156 -7.609375 11.109375 -8.046875 C 10.941406 -8.484375 10.703125 -8.851562 10.390625 -9.15625 C 10.085938 -9.46875 9.726562 -9.710938 9.3125 -9.890625 C 8.90625 -10.066406 8.46875 -10.15625 8 -10.15625 C 7.519531 -10.15625 7.070312 -10.066406 6.65625 -9.890625 C 6.25 -9.710938 5.890625 -9.46875 5.578125 -9.15625 C 5.273438 -8.851562 5.035156 -8.484375 4.859375 -8.046875 C 4.691406 -7.609375 4.609375 -7.140625 4.609375 -6.640625 C 4.609375 -6.128906 4.691406 -5.65625 4.859375 -5.21875 C 5.035156 -4.789062 5.273438 -4.421875 5.578125 -4.109375 C 5.890625 -3.804688 6.25 -3.5625 6.65625 -3.375 C 7.070312 -3.195312 7.519531 -3.109375 8 -3.109375 Z M 8 -3.109375 "/></g></g></g><g fill="#ffffff" fill-opacity="1"><g transform="translate(191.303731, 203.258257)"><g><path d="M 6.640625 0.265625 C 5.953125 0.265625 5.3125 0.132812 4.71875 -0.125 C 4.132812 -0.382812 3.617188 -0.753906 3.171875 -1.234375 C 2.734375 -1.710938 2.390625 -2.296875 2.140625 -2.984375 C 1.890625 -3.671875 1.765625 -4.4375 1.765625 -5.28125 L 1.765625 -13.28125 L 5.421875 -13.28125 L 5.421875 -5.828125 C 5.421875 -5.015625 5.632812 -4.378906 6.0625 -3.921875 C 6.5 -3.472656 7.097656 -3.25 7.859375 -3.25 C 8.671875 -3.25 9.347656 -3.523438 9.890625 -4.078125 C 10.429688 -4.628906 10.703125 -5.347656 10.703125 -6.234375 L 10.703125 -13.28125 L 14.359375 -13.28125 L 14.359375 0 L 10.703125 0 L 10.703125 -1.890625 L 10.5625 -1.890625 C 10.28125 -1.492188 9.945312 -1.132812 9.5625 -0.8125 C 9.238281 -0.539062 8.828125 -0.289062 8.328125 -0.0625 C 7.835938 0.15625 7.273438 0.265625 6.640625 0.265625 Z M 6.640625 0.265625 "/></g></g></g><g fill="#ffffff" fill-opacity="1"><g transform="translate(206.068735, 203.258257)"><g><path d="M 1.765625 -13.28125 L 5.421875 -13.28125 L 5.421875 -11.375 L 5.546875 -11.375 C 5.835938 -11.769531 6.175781 -12.132812 6.5625 -12.46875 C 6.882812 -12.738281 7.285156 -12.984375 7.765625 -13.203125 C 8.253906 -13.429688 8.828125 -13.546875 9.484375 -13.546875 L 9.75 -13.546875 L 9.75 -9.625 C 9.664062 -9.632812 9.566406 -9.648438 9.453125 -9.671875 C 9.347656 -9.691406 9.21875 -9.707031 9.0625 -9.71875 C 8.90625 -9.738281 8.726562 -9.75 8.53125 -9.75 C 7.644531 -9.75 6.90625 -9.429688 6.3125 -8.796875 C 5.71875 -8.171875 5.421875 -7.316406 5.421875 -6.234375 L 5.421875 0 L 1.765625 0 Z M 1.765625 -13.28125 "/></g></g></g><g fill="#ffffff" fill-opacity="1"><g transform="translate(215.008781, 203.258257)"><g/></g></g><g fill="#ffffff" fill-opacity="1"><g transform="translate(219.34306, 203.258257)"><g><path d="M 8 0.265625 C 7.019531 0.265625 6.097656 0.0859375 5.234375 -0.265625 C 4.378906 -0.628906 3.628906 -1.125 2.984375 -1.75 C 2.347656 -2.382812 1.847656 -3.117188 1.484375 -3.953125 C 1.128906 -4.785156 0.953125 -5.679688 0.953125 -6.640625 C 0.953125 -7.578125 1.128906 -8.460938 1.484375 -9.296875 C 1.847656 -10.140625 2.347656 -10.878906 2.984375 -11.515625 C 3.628906 -12.148438 4.378906 -12.644531 5.234375 -13 C 6.097656 -13.363281 7.019531 -13.546875 8 -13.546875 C 8.945312 -13.546875 9.765625 -13.40625 10.453125 -13.125 C 11.140625 -12.84375 11.71875 -12.53125 12.1875 -12.1875 C 12.726562 -11.789062 13.179688 -11.34375 13.546875 -10.84375 L 11.25 -8.53125 C 10.988281 -8.84375 10.695312 -9.113281 10.375 -9.34375 C 10.082031 -9.539062 9.738281 -9.722656 9.34375 -9.890625 C 8.945312 -10.066406 8.5 -10.15625 8 -10.15625 C 7.519531 -10.15625 7.070312 -10.066406 6.65625 -9.890625 C 6.25 -9.710938 5.890625 -9.46875 5.578125 -9.15625 C 5.273438 -8.851562 5.035156 -8.484375 4.859375 -8.046875 C 4.691406 -7.609375 4.609375 -7.140625 4.609375 -6.640625 C 4.609375 -6.128906 4.691406 -5.65625 4.859375 -5.21875 C 5.035156 -4.789062 5.273438 -4.421875 5.578125 -4.109375 C 5.890625 -3.804688 6.25 -3.5625 6.65625 -3.375 C 7.070312 -3.195312 7.519531 -3.109375 8 -3.109375 C 8.5 -3.109375 8.945312 -3.191406 9.34375 -3.359375 C 9.738281 -3.535156 10.082031 -3.722656 10.375 -3.921875 C 10.695312 -4.160156 10.988281 -4.429688 11.25 -4.734375 L 13.546875 -2.4375 C 13.179688 -1.9375 12.726562 -1.484375 12.1875 -1.078125 C 11.71875 -0.734375 11.140625 -0.421875 10.453125 -0.140625 C 9.765625 0.128906 8.945312 0.265625 8 0.265625 Z M 8 0.265625 "/></g></g></g><g fill="#ffffff" fill-opacity="1"><g transform="translate(232.076106, 203.258257)"><g><path d="M 8 0.265625 C 7.019531 0.265625 6.097656 0.0859375 5.234375 -0.265625 C 4.378906 -0.628906 3.628906 -1.125 2.984375 -1.75 C 2.347656 -2.382812 1.847656 -3.117188 1.484375 -3.953125 C 1.128906 -4.785156 0.953125 -5.679688 0.953125 -6.640625 C 0.953125 -7.578125 1.128906 -8.460938 1.484375 -9.296875 C 1.847656 -10.140625 2.347656 -10.878906 2.984375 -11.515625 C 3.628906 -12.148438 4.378906 -12.644531 5.234375 -13 C 6.097656 -13.363281 7.019531 -13.546875 8 -13.546875 C 8.96875 -13.546875 9.878906 -13.363281 10.734375 -13 C 11.597656 -12.644531 12.347656 -12.148438 12.984375 -11.515625 C 13.628906 -10.878906 14.128906 -10.140625 14.484375 -9.296875 C 14.847656 -8.460938 15.03125 -7.578125 15.03125 -6.640625 C 15.03125 -5.679688 14.847656 -4.785156 14.484375 -3.953125 C 14.128906 -3.117188 13.628906 -2.382812 12.984375 -1.75 C 12.347656 -1.125 11.597656 -0.628906 10.734375 -0.265625 C 9.878906 0.0859375 8.96875 0.265625 8 0.265625 Z M 8 -3.109375 C 8.46875 -3.109375 8.90625 -3.195312 9.3125 -3.375 C 9.726562 -3.5625 10.085938 -3.804688 10.390625 -4.109375 C 10.703125 -4.421875 10.941406 -4.789062 11.109375 -5.21875 C 11.285156 -5.65625 11.375 -6.128906 11.375 -6.640625 C 11.375 -7.140625 11.285156 -7.609375 11.109375 -8.046875 C 10.941406 -8.484375 10.703125 -8.851562 10.390625 -9.15625 C 10.085938 -9.46875 9.726562 -9.710938 9.3125 -9.890625 C 8.90625 -10.066406 8.46875 -10.15625 8 -10.15625 C 7.519531 -10.15625 7.070312 -10.066406 6.65625 -9.890625 C 6.25 -9.710938 5.890625 -9.46875 5.578125 -9.15625 C 5.273438 -8.851562 5.035156 -8.484375 4.859375 -8.046875 C 4.691406 -7.609375 4.609375 -7.140625 4.609375 -6.640625 C 4.609375 -6.128906 4.691406 -5.65625 4.859375 -5.21875 C 5.035156 -4.789062 5.273438 -4.421875 5.578125 -4.109375 C 5.890625 -3.804688 6.25 -3.5625 6.65625 -3.375 C 7.070312 -3.195312 7.519531 -3.109375 8 -3.109375 Z M 8 -3.109375 "/></g></g></g><g fill="#ffffff" fill-opacity="1"><g transform="translate(246.705638, 203.258257)"><g><path d="M 1.765625 -13.28125 L 5.421875 -13.28125 L 5.421875 -11.375 L 5.546875 -11.375 C 5.785156 -11.769531 6.078125 -12.132812 6.421875 -12.46875 C 6.722656 -12.738281 7.097656 -12.984375 7.546875 -13.203125 C 8.003906 -13.429688 8.5625 -13.546875 9.21875 -13.546875 C 9.914062 -13.546875 10.515625 -13.421875 11.015625 -13.171875 C 11.523438 -12.929688 11.9375 -12.664062 12.25 -12.375 C 12.601562 -12.050781 12.898438 -11.675781 13.140625 -11.25 L 13.28125 -11.25 C 13.582031 -11.675781 13.953125 -12.050781 14.390625 -12.375 C 14.742188 -12.664062 15.1875 -12.929688 15.71875 -13.171875 C 16.257812 -13.421875 16.890625 -13.546875 17.609375 -13.546875 C 18.265625 -13.546875 18.867188 -13.421875 19.421875 -13.171875 C 19.984375 -12.929688 20.472656 -12.582031 20.890625 -12.125 C 21.304688 -11.664062 21.628906 -11.109375 21.859375 -10.453125 C 22.097656 -9.804688 22.21875 -9.078125 22.21875 -8.265625 L 22.21875 0 L 18.5625 0 L 18.5625 -7.71875 C 18.5625 -8.476562 18.367188 -9.050781 17.984375 -9.4375 C 17.609375 -9.832031 17.078125 -10.03125 16.390625 -10.03125 C 15.628906 -10.03125 15.007812 -9.78125 14.53125 -9.28125 C 14.050781 -8.78125 13.8125 -8.125 13.8125 -7.3125 L 13.8125 0 L 10.15625 0 L 10.15625 -7.71875 C 10.15625 -8.476562 9.960938 -9.050781 9.578125 -9.4375 C 9.203125 -9.832031 8.675781 -10.03125 8 -10.03125 C 7.238281 -10.03125 6.617188 -9.78125 6.140625 -9.28125 C 5.660156 -8.78125 5.421875 -8.125 5.421875 -7.3125 L 5.421875 0 L 1.765625 0 Z M 1.765625 -13.28125 "/></g></g></g><g fill="#ffffff" fill-opacity="1"><g transform="translate(269.327546, 203.258257)"><g><path d="M 1.765625 -13.28125 L 5.421875 -13.28125 L 5.421875 -11.375 L 5.546875 -11.375 C 5.785156 -11.769531 6.078125 -12.132812 6.421875 -12.46875 C 6.722656 -12.738281 7.097656 -12.984375 7.546875 -13.203125 C 8.003906 -13.429688 8.5625 -13.546875 9.21875 -13.546875 C 9.914062 -13.546875 10.515625 -13.421875 11.015625 -13.171875 C 11.523438 -12.929688 11.9375 -12.664062 12.25 -12.375 C 12.601562 -12.050781 12.898438 -11.675781 13.140625 -11.25 L 13.28125 -11.25 C 13.582031 -11.675781 13.953125 -12.050781 14.390625 -12.375 C 14.742188 -12.664062 15.1875 -12.929688 15.71875 -13.171875 C 16.257812 -13.421875 16.890625 -13.546875 17.609375 -13.546875 C 18.265625 -13.546875 18.867188 -13.421875 19.421875 -13.171875 C 19.984375 -12.929688 20.472656 -12.582031 20.890625 -12.125 C 21.304688 -11.664062 21.628906 -11.109375 21.859375 -10.453125 C 22.097656 -9.804688 22.21875 -9.078125 22.21875 -8.265625 L 22.21875 0 L 18.5625 0 L 18.5625 -7.71875 C 18.5625 -8.476562 18.367188 -9.050781 17.984375 -9.4375 C 17.609375 -9.832031 17.078125 -10.03125 16.390625 -10.03125 C 15.628906 -10.03125 15.007812 -9.78125 14.53125 -9.28125 C 14.050781 -8.78125 13.8125 -8.125 13.8125 -7.3125 L 13.8125 0 L 10.15625 0 L 10.15625 -7.71875 C 10.15625 -8.476562 9.960938 -9.050781 9.578125 -9.4375 C 9.203125 -9.832031 8.675781 -10.03125 8 -10.03125 C 7.238281 -10.03125 6.617188 -9.78125 6.140625 -9.28125 C 5.660156 -8.78125 5.421875 -8.125 5.421875 -7.3125 L 5.421875 0 L 1.765625 0 Z M 1.765625 -13.28125 "/></g></g></g><g fill="#ffffff" fill-opacity="1"><g transform="translate(291.949455, 203.258257)"><g><path d="M 6.640625 0.265625 C 5.953125 0.265625 5.3125 0.132812 4.71875 -0.125 C 4.132812 -0.382812 3.617188 -0.753906 3.171875 -1.234375 C 2.734375 -1.710938 2.390625 -2.296875 2.140625 -2.984375 C 1.890625 -3.671875 1.765625 -4.4375 1.765625 -5.28125 L 1.765625 -13.28125 L 5.421875 -13.28125 L 5.421875 -5.828125 C 5.421875 -5.015625 5.632812 -4.378906 6.0625 -3.921875 C 6.5 -3.472656 7.097656 -3.25 7.859375 -3.25 C 8.671875 -3.25 9.347656 -3.523438 9.890625 -4.078125 C 10.429688 -4.628906 10.703125 -5.347656 10.703125 -6.234375 L 10.703125 -13.28125 L 14.359375 -13.28125 L 14.359375 0 L 10.703125 0 L 10.703125 -1.890625 L 10.5625 -1.890625 C 10.28125 -1.492188 9.945312 -1.132812 9.5625 -0.8125 C 9.238281 -0.539062 8.828125 -0.289062 8.328125 -0.0625 C 7.835938 0.15625 7.273438 0.265625 6.640625 0.265625 Z M 6.640625 0.265625 "/></g></g></g><g fill="#ffffff" fill-opacity="1"><g transform="translate(306.714462, 203.258257)"><g><path d="M 1.765625 -13.28125 L 5.421875 -13.28125 L 5.421875 -11.375 L 5.546875 -11.375 C 5.835938 -11.769531 6.175781 -12.132812 6.5625 -12.46875 C 6.882812 -12.738281 7.285156 -12.984375 7.765625 -13.203125 C 8.253906 -13.429688 8.828125 -13.546875 9.484375 -13.546875 C 10.148438 -13.546875 10.78125 -13.414062 11.375 -13.15625 C 11.96875 -12.894531 12.484375 -12.523438 12.921875 -12.046875 C 13.367188 -11.566406 13.71875 -10.984375 13.96875 -10.296875 C 14.226562 -9.609375 14.359375 -8.84375 14.359375 -8 L 14.359375 0 L 10.703125 0 L 10.703125 -7.453125 C 10.703125 -8.265625 10.484375 -8.894531 10.046875 -9.34375 C 9.617188 -9.800781 9.023438 -10.03125 8.265625 -10.03125 C 7.453125 -10.03125 6.773438 -9.753906 6.234375 -9.203125 C 5.691406 -8.648438 5.421875 -7.929688 5.421875 -7.046875 L 5.421875 0 L 1.765625 0 Z M 1.765625 -13.28125 "/></g></g></g><g fill="#ffffff" fill-opacity="1"><g transform="translate(321.47947, 203.258257)"><g><path d="M 1.765625 -13.28125 L 5.421875 -13.28125 L 5.421875 0 L 1.765625 0 Z M 3.578125 -15.03125 C 2.992188 -15.03125 2.5 -15.234375 2.09375 -15.640625 C 1.6875 -16.046875 1.484375 -16.519531 1.484375 -17.0625 C 1.484375 -17.601562 1.691406 -18.078125 2.109375 -18.484375 C 2.523438 -18.890625 3.023438 -19.09375 3.609375 -19.09375 C 4.179688 -19.09375 4.671875 -18.890625 5.078125 -18.484375 C 5.484375 -18.078125 5.6875 -17.601562 5.6875 -17.0625 C 5.6875 -16.519531 5.476562 -16.046875 5.0625 -15.640625 C 4.644531 -15.234375 4.148438 -15.03125 3.578125 -15.03125 Z M 3.578125 -15.03125 "/></g></g></g><g fill="#ffffff" fill-opacity="1"><g transform="translate(327.303851, 203.258257)"><g><path d="M 7.3125 0.265625 C 5.957031 0.265625 4.875 -0.148438 4.0625 -0.984375 C 3.25 -1.828125 2.84375 -3.035156 2.84375 -4.609375 L 2.84375 -9.625 L 0.546875 -9.625 L 0.546875 -13 L 1.765625 -13 C 2.753906 -13 3.25 -13.539062 3.25 -14.625 L 3.25 -17.0625 L 6.5 -17.0625 L 6.5 -13 L 9.484375 -13 L 9.484375 -9.625 L 6.5 -9.625 L 6.5 -5.140625 C 6.5 -4.535156 6.65625 -4.066406 6.96875 -3.734375 C 7.289062 -3.410156 7.722656 -3.25 8.265625 -3.25 C 8.660156 -3.25 9.007812 -3.296875 9.3125 -3.390625 C 9.476562 -3.421875 9.625 -3.460938 9.75 -3.515625 L 9.75 -0.140625 C 9.53125 -0.0664062 9.296875 0.00390625 9.046875 0.078125 C 8.828125 0.128906 8.566406 0.171875 8.265625 0.203125 C 7.972656 0.242188 7.65625 0.265625 7.3125 0.265625 Z M 7.3125 0.265625 "/></g></g></g><g fill="#ffffff" fill-opacity="1"><g transform="translate(336.785764, 203.258257)"><g><path d="M 3.390625 5.6875 C 3.046875 5.6875 2.722656 5.664062 2.421875 5.625 C 2.128906 5.59375 1.875 5.550781 1.65625 5.5 C 1.394531 5.425781 1.160156 5.351562 0.953125 5.28125 L 0.953125 1.890625 C 1.078125 1.953125 1.21875 2 1.375 2.03125 C 1.6875 2.125 2.039062 2.171875 2.4375 2.171875 C 3.050781 2.171875 3.535156 2.015625 3.890625 1.703125 C 4.253906 1.398438 4.535156 1.015625 4.734375 0.546875 L 5.015625 -0.140625 L -0.140625 -13.28125 L 3.796875 -13.28125 L 6.90625 -4.46875 L 7.046875 -4.46875 L 10.03125 -13.28125 L 13.953125 -13.28125 L 8.53125 1.078125 C 7.96875 2.578125 7.273438 3.71875 6.453125 4.5 C 5.640625 5.289062 4.617188 5.6875 3.390625 5.6875 Z M 3.390625 5.6875 "/></g></g></g><g fill="#ffffff" fill-opacity="1"><g transform="translate(349.24788, 203.258257)"><g><path d="M -0.40625 2.296875 L 2.4375 -4.0625 L 5.546875 -2.296875 L 1.765625 3.515625 Z M -0.40625 2.296875 "/></g></g></g><g fill="#ffffff" fill-opacity="1"><g transform="translate(149.17349, 227.651379)"><g><path d="M 3.390625 5.6875 C 3.046875 5.6875 2.722656 5.664062 2.421875 5.625 C 2.128906 5.59375 1.875 5.550781 1.65625 5.5 C 1.394531 5.425781 1.160156 5.351562 0.953125 5.28125 L 0.953125 1.890625 C 1.078125 1.953125 1.21875 2 1.375 2.03125 C 1.6875 2.125 2.039062 2.171875 2.4375 2.171875 C 3.050781 2.171875 3.535156 2.015625 3.890625 1.703125 C 4.253906 1.398438 4.535156 1.015625 4.734375 0.546875 L 5.015625 -0.140625 L -0.140625 -13.28125 L 3.796875 -13.28125 L 6.90625 -4.46875 L 7.046875 -4.46875 L 10.03125 -13.28125 L 13.953125 -13.28125 L 8.53125 1.078125 C 7.96875 2.578125 7.273438 3.71875 6.453125 4.5 C 5.640625 5.289062 4.617188 5.6875 3.390625 5.6875 Z M 3.390625 5.6875 "/></g></g></g><g fill="#ffffff" fill-opacity="1"><g transform="translate(161.635601, 227.651379)"><g><path d="M 8 0.265625 C 7.019531 0.265625 6.097656 0.0859375 5.234375 -0.265625 C 4.378906 -0.628906 3.628906 -1.125 2.984375 -1.75 C 2.347656 -2.382812 1.847656 -3.117188 1.484375 -3.953125 C 1.128906 -4.785156 0.953125 -5.679688 0.953125 -6.640625 C 0.953125 -7.578125 1.128906 -8.460938 1.484375 -9.296875 C 1.847656 -10.140625 2.347656 -10.878906 2.984375 -11.515625 C 3.628906 -12.148438 4.378906 -12.644531 5.234375 -13 C 6.097656 -13.363281 7.019531 -13.546875 8 -13.546875 C 8.96875 -13.546875 9.878906 -13.363281 10.734375 -13 C 11.597656 -12.644531 12.347656 -12.148438 12.984375 -11.515625 C 13.628906 -10.878906 14.128906 -10.140625 14.484375 -9.296875 C 14.847656 -8.460938 15.03125 -7.578125 15.03125 -6.640625 C 15.03125 -5.679688 14.847656 -4.785156 14.484375 -3.953125 C 14.128906 -3.117188 13.628906 -2.382812 12.984375 -1.75 C 12.347656 -1.125 11.597656 -0.628906 10.734375 -0.265625 C 9.878906 0.0859375 8.96875 0.265625 8 0.265625 Z M 8 -3.109375 C 8.46875 -3.109375 8.90625 -3.195312 9.3125 -3.375 C 9.726562 -3.5625 10.085938 -3.804688 10.390625 -4.109375 C 10.703125 -4.421875 10.941406 -4.789062 11.109375 -5.21875 C 11.285156 -5.65625 11.375 -6.128906 11.375 -6.640625 C 11.375 -7.140625 11.285156 -7.609375 11.109375 -8.046875 C 10.941406 -8.484375 10.703125 -8.851562 10.390625 -9.15625 C 10.085938 -9.46875 9.726562 -9.710938 9.3125 -9.890625 C 8.90625 -10.066406 8.46875 -10.15625 8 -10.15625 C 7.519531 -10.15625 7.070312 -10.066406 6.65625 -9.890625 C 6.25 -9.710938 5.890625 -9.46875 5.578125 -9.15625 C 5.273438 -8.851562 5.035156 -8.484375 4.859375 -8.046875 C 4.691406 -7.609375 4.609375 -7.140625 4.609375 -6.640625 C 4.609375 -6.128906 4.691406 -5.65625 4.859375 -5.21875 C 5.035156 -4.789062 5.273438 -4.421875 5.578125 -4.109375 C 5.890625 -3.804688 6.25 -3.5625 6.65625 -3.375 C 7.070312 -3.195312 7.519531 -3.109375 8 -3.109375 Z M 8 -3.109375 "/></g></g></g><g fill="#ffffff" fill-opacity="1"><g transform="translate(176.265134, 227.651379)"><g><path d="M 6.640625 0.265625 C 5.953125 0.265625 5.3125 0.132812 4.71875 -0.125 C 4.132812 -0.382812 3.617188 -0.753906 3.171875 -1.234375 C 2.734375 -1.710938 2.390625 -2.296875 2.140625 -2.984375 C 1.890625 -3.671875 1.765625 -4.4375 1.765625 -5.28125 L 1.765625 -13.28125 L 5.421875 -13.28125 L 5.421875 -5.828125 C 5.421875 -5.015625 5.632812 -4.378906 6.0625 -3.921875 C 6.5 -3.472656 7.097656 -3.25 7.859375 -3.25 C 8.671875 -3.25 9.347656 -3.523438 9.890625 -4.078125 C 10.429688 -4.628906 10.703125 -5.347656 10.703125 -6.234375 L 10.703125 -13.28125 L 14.359375 -13.28125 L 14.359375 0 L 10.703125 0 L 10.703125 -1.890625 L 10.5625 -1.890625 C 10.28125 -1.492188 9.945312 -1.132812 9.5625 -0.8125 C 9.238281 -0.539062 8.828125 -0.289062 8.328125 -0.0625 C 7.835938 0.15625 7.273438 0.265625 6.640625 0.265625 Z M 6.640625 0.265625 "/></g></g></g><g fill="#ffffff" fill-opacity="1"><g transform="translate(191.030138, 227.651379)"><g><path d="M 1.765625 -13.28125 L 5.421875 -13.28125 L 5.421875 -11.375 L 5.546875 -11.375 C 5.835938 -11.769531 6.175781 -12.132812 6.5625 -12.46875 C 6.882812 -12.738281 7.285156 -12.984375 7.765625 -13.203125 C 8.253906 -13.429688 8.828125 -13.546875 9.484375 -13.546875 L 9.75 -13.546875 L 9.75 -9.625 C 9.664062 -9.632812 9.566406 -9.648438 9.453125 -9.671875 C 9.347656 -9.691406 9.21875 -9.707031 9.0625 -9.71875 C 8.90625 -9.738281 8.726562 -9.75 8.53125 -9.75 C 7.644531 -9.75 6.90625 -9.429688 6.3125 -8.796875 C 5.71875 -8.171875 5.421875 -7.316406 5.421875 -6.234375 L 5.421875 0 L 1.765625 0 Z M 1.765625 -13.28125 "/></g></g></g><g fill="#ffffff" fill-opacity="1"><g transform="translate(199.970184, 227.651379)"><g/></g></g><g fill="#ffffff" fill-opacity="1"><g transform="translate(204.304462, 227.651379)"><g><path d="M 1.765625 -13.28125 L 5.421875 -13.28125 L 5.421875 0 L 1.765625 0 Z M 3.578125 -15.03125 C 2.992188 -15.03125 2.5 -15.234375 2.09375 -15.640625 C 1.6875 -16.046875 1.484375 -16.519531 1.484375 -17.0625 C 1.484375 -17.601562 1.691406 -18.078125 2.109375 -18.484375 C 2.523438 -18.890625 3.023438 -19.09375 3.609375 -19.09375 C 4.179688 -19.09375 4.671875 -18.890625 5.078125 -18.484375 C 5.484375 -18.078125 5.6875 -17.601562 5.6875 -17.0625 C 5.6875 -16.519531 5.476562 -16.046875 5.0625 -15.640625 C 4.644531 -15.234375 4.148438 -15.03125 3.578125 -15.03125 Z M 3.578125 -15.03125 "/></g></g></g><g fill="#ffffff" fill-opacity="1"><g transform="translate(210.128835, 227.651379)"><g><path d="M 1.765625 -13.28125 L 5.421875 -13.28125 L 5.421875 -11.375 L 5.546875 -11.375 C 5.835938 -11.769531 6.175781 -12.132812 6.5625 -12.46875 C 6.882812 -12.738281 7.285156 -12.984375 7.765625 -13.203125 C 8.253906 -13.429688 8.828125 -13.546875 9.484375 -13.546875 C 10.148438 -13.546875 10.78125 -13.414062 11.375 -13.15625 C 11.96875 -12.894531 12.484375 -12.523438 12.921875 -12.046875 C 13.367188 -11.566406 13.71875 -10.984375 13.96875 -10.296875 C 14.226562 -9.609375 14.359375 -8.84375 14.359375 -8 L 14.359375 0 L 10.703125 0 L 10.703125 -7.453125 C 10.703125 -8.265625 10.484375 -8.894531 10.046875 -9.34375 C 9.617188 -9.800781 9.023438 -10.03125 8.265625 -10.03125 C 7.453125 -10.03125 6.773438 -9.753906 6.234375 -9.203125 C 5.691406 -8.648438 5.421875 -7.929688 5.421875 -7.046875 L 5.421875 0 L 1.765625 0 Z M 1.765625 -13.28125 "/></g></g></g><g fill="#ffffff" fill-opacity="1"><g transform="translate(224.893835, 227.651379)"><g><path d="M 2.578125 -9.625 L 0.546875 -9.625 L 0.546875 -13 L 2.578125 -13 L 2.578125 -14.359375 C 2.578125 -15.929688 2.984375 -17.132812 3.796875 -17.96875 C 4.609375 -18.8125 5.691406 -19.234375 7.046875 -19.234375 C 7.390625 -19.234375 7.707031 -19.207031 8 -19.15625 C 8.300781 -19.113281 8.5625 -19.066406 8.78125 -19.015625 C 9.03125 -18.941406 9.265625 -18.878906 9.484375 -18.828125 L 9.484375 -15.4375 C 9.359375 -15.476562 9.210938 -15.523438 9.046875 -15.578125 C 8.898438 -15.617188 8.738281 -15.648438 8.5625 -15.671875 C 8.382812 -15.703125 8.195312 -15.71875 8 -15.71875 C 7.457031 -15.71875 7.023438 -15.550781 6.703125 -15.21875 C 6.390625 -14.894531 6.234375 -14.425781 6.234375 -13.8125 L 6.234375 -13 L 9.21875 -13 L 9.21875 -9.625 L 6.234375 -9.625 L 6.234375 0 L 2.578125 0 Z M 2.578125 -9.625 "/></g></g></g><g fill="#ffffff" fill-opacity="1"><g transform="translate(233.562959, 227.651379)"><g><path d="M 1.765625 -13.28125 L 5.421875 -13.28125 L 5.421875 -11.375 L 5.546875 -11.375 C 5.835938 -11.769531 6.175781 -12.132812 6.5625 -12.46875 C 6.882812 -12.738281 7.285156 -12.984375 7.765625 -13.203125 C 8.253906 -13.429688 8.828125 -13.546875 9.484375 -13.546875 L 9.75 -13.546875 L 9.75 -9.625 C 9.664062 -9.632812 9.566406 -9.648438 9.453125 -9.671875 C 9.347656 -9.691406 9.21875 -9.707031 9.0625 -9.71875 C 8.90625 -9.738281 8.726562 -9.75 8.53125 -9.75 C 7.644531 -9.75 6.90625 -9.429688 6.3125 -8.796875 C 5.71875 -8.171875 5.421875 -7.316406 5.421875 -6.234375 L 5.421875 0 L 1.765625 0 Z M 1.765625 -13.28125 "/></g></g></g><g fill="#ffffff" fill-opacity="1"><g transform="translate(242.503005, 227.651379)"><g><path d="M 5.140625 0.265625 C 4.535156 0.265625 3.984375 0.171875 3.484375 -0.015625 C 2.984375 -0.203125 2.554688 -0.46875 2.203125 -0.8125 C 1.859375 -1.15625 1.582031 -1.554688 1.375 -2.015625 C 1.175781 -2.472656 1.078125 -2.972656 1.078125 -3.515625 C 1.078125 -4.597656 1.425781 -5.523438 2.125 -6.296875 C 2.820312 -7.066406 3.785156 -7.5625 5.015625 -7.78125 L 9.21875 -8.53125 C 9.144531 -9 8.910156 -9.410156 8.515625 -9.765625 C 8.128906 -10.117188 7.59375 -10.296875 6.90625 -10.296875 C 6.4375 -10.296875 6.015625 -10.21875 5.640625 -10.0625 C 5.273438 -9.90625 4.96875 -9.726562 4.71875 -9.53125 C 4.40625 -9.320312 4.140625 -9.082031 3.921875 -8.8125 L 1.765625 -10.96875 C 2.140625 -11.4375 2.597656 -11.863281 3.140625 -12.25 C 3.609375 -12.570312 4.175781 -12.867188 4.84375 -13.140625 C 5.519531 -13.410156 6.300781 -13.546875 7.1875 -13.546875 C 8.03125 -13.546875 8.800781 -13.410156 9.5 -13.140625 C 10.195312 -12.867188 10.796875 -12.492188 11.296875 -12.015625 C 11.804688 -11.535156 12.195312 -10.972656 12.46875 -10.328125 C 12.738281 -9.691406 12.875 -9.003906 12.875 -8.265625 L 12.875 0 L 9.21875 0 L 9.21875 -1.625 L 9.078125 -1.625 C 8.785156 -1.257812 8.453125 -0.941406 8.078125 -0.671875 C 7.753906 -0.421875 7.34375 -0.203125 6.84375 -0.015625 C 6.34375 0.171875 5.773438 0.265625 5.140625 0.265625 Z M 6.359375 -2.703125 C 7.179688 -2.703125 7.863281 -2.976562 8.40625 -3.53125 C 8.945312 -4.082031 9.21875 -4.800781 9.21875 -5.6875 L 9.21875 -5.953125 L 6.234375 -5.421875 C 5.765625 -5.328125 5.394531 -5.160156 5.125 -4.921875 C 4.863281 -4.691406 4.734375 -4.40625 4.734375 -4.0625 C 4.734375 -3.644531 4.867188 -3.3125 5.140625 -3.0625 C 5.410156 -2.820312 5.816406 -2.703125 6.359375 -2.703125 Z M 6.359375 -2.703125 "/></g></g></g><g fill="#ffffff" fill-opacity="1"><g transform="translate(255.777895, 227.651379)"><g><path d="M 6.09375 0.265625 C 5.175781 0.265625 4.363281 0.140625 3.65625 -0.109375 C 2.945312 -0.359375 2.351562 -0.640625 1.875 -0.953125 C 1.289062 -1.296875 0.800781 -1.703125 0.40625 -2.171875 L 2.578125 -4.46875 C 2.847656 -4.175781 3.160156 -3.925781 3.515625 -3.71875 C 3.828125 -3.507812 4.195312 -3.332031 4.625 -3.1875 C 5.0625 -3.050781 5.550781 -2.984375 6.09375 -2.984375 C 6.707031 -2.984375 7.128906 -3.070312 7.359375 -3.25 C 7.597656 -3.425781 7.71875 -3.648438 7.71875 -3.921875 C 7.71875 -4.179688 7.550781 -4.394531 7.21875 -4.5625 C 6.882812 -4.738281 6.460938 -4.90625 5.953125 -5.0625 C 5.453125 -5.226562 4.910156 -5.414062 4.328125 -5.625 C 3.753906 -5.84375 3.210938 -6.113281 2.703125 -6.4375 C 2.203125 -6.769531 1.785156 -7.179688 1.453125 -7.671875 C 1.117188 -8.160156 0.953125 -8.765625 0.953125 -9.484375 C 0.953125 -10.023438 1.066406 -10.539062 1.296875 -11.03125 C 1.535156 -11.519531 1.875 -11.953125 2.3125 -12.328125 C 2.757812 -12.703125 3.3125 -13 3.96875 -13.21875 C 4.625 -13.4375 5.378906 -13.546875 6.234375 -13.546875 C 7.078125 -13.546875 7.816406 -13.4375 8.453125 -13.21875 C 9.097656 -13 9.640625 -12.765625 10.078125 -12.515625 C 10.585938 -12.210938 11.019531 -11.878906 11.375 -11.515625 L 9.21875 -9.21875 C 9 -9.414062 8.734375 -9.59375 8.421875 -9.75 C 8.171875 -9.894531 7.859375 -10.019531 7.484375 -10.125 C 7.117188 -10.238281 6.703125 -10.296875 6.234375 -10.296875 C 5.765625 -10.296875 5.421875 -10.207031 5.203125 -10.03125 C 4.984375 -9.863281 4.875 -9.679688 4.875 -9.484375 C 4.875 -9.234375 5.039062 -9.019531 5.375 -8.84375 C 5.707031 -8.675781 6.125 -8.507812 6.625 -8.34375 C 7.132812 -8.175781 7.675781 -7.984375 8.25 -7.765625 C 8.832031 -7.554688 9.375 -7.285156 9.875 -6.953125 C 10.382812 -6.628906 10.804688 -6.222656 11.140625 -5.734375 C 11.484375 -5.253906 11.65625 -4.648438 11.65625 -3.921875 C 11.65625 -3.347656 11.535156 -2.804688 11.296875 -2.296875 C 11.066406 -1.796875 10.710938 -1.351562 10.234375 -0.96875 C 9.765625 -0.59375 9.1875 -0.289062 8.5 -0.0625 C 7.820312 0.15625 7.019531 0.265625 6.09375 0.265625 Z M 6.09375 0.265625 "/></g></g></g><g fill="#ffffff" fill-opacity="1"><g transform="translate(266.74991, 227.651379)"><g><path d="M 7.3125 0.265625 C 5.957031 0.265625 4.875 -0.148438 4.0625 -0.984375 C 3.25 -1.828125 2.84375 -3.035156 2.84375 -4.609375 L 2.84375 -9.625 L 0.546875 -9.625 L 0.546875 -13 L 1.765625 -13 C 2.753906 -13 3.25 -13.539062 3.25 -14.625 L 3.25 -17.0625 L 6.5 -17.0625 L 6.5 -13 L 9.484375 -13 L 9.484375 -9.625 L 6.5 -9.625 L 6.5 -5.140625 C 6.5 -4.535156 6.65625 -4.066406 6.96875 -3.734375 C 7.289062 -3.410156 7.722656 -3.25 8.265625 -3.25 C 8.660156 -3.25 9.007812 -3.296875 9.3125 -3.390625 C 9.476562 -3.421875 9.625 -3.460938 9.75 -3.515625 L 9.75 -0.140625 C 9.53125 -0.0664062 9.296875 0.00390625 9.046875 0.078125 C 8.828125 0.128906 8.566406 0.171875 8.265625 0.203125 C 7.972656 0.242188 7.65625 0.265625 7.3125 0.265625 Z M 7.3125 0.265625 "/></g></g></g><g fill="#ffffff" fill-opacity="1"><g transform="translate(276.231815, 227.651379)"><g><path d="M 1.765625 -13.28125 L 5.421875 -13.28125 L 5.421875 -11.375 L 5.546875 -11.375 C 5.835938 -11.769531 6.175781 -12.132812 6.5625 -12.46875 C 6.882812 -12.738281 7.285156 -12.984375 7.765625 -13.203125 C 8.253906 -13.429688 8.828125 -13.546875 9.484375 -13.546875 L 9.75 -13.546875 L 9.75 -9.625 C 9.664062 -9.632812 9.566406 -9.648438 9.453125 -9.671875 C 9.347656 -9.691406 9.21875 -9.707031 9.0625 -9.71875 C 8.90625 -9.738281 8.726562 -9.75 8.53125 -9.75 C 7.644531 -9.75 6.90625 -9.429688 6.3125 -8.796875 C 5.71875 -8.171875 5.421875 -7.316406 5.421875 -6.234375 L 5.421875 0 L 1.765625 0 Z M 1.765625 -13.28125 "/></g></g></g><g fill="#ffffff" fill-opacity="1"><g transform="translate(285.17186, 227.651379)"><g><path d="M 6.640625 0.265625 C 5.953125 0.265625 5.3125 0.132812 4.71875 -0.125 C 4.132812 -0.382812 3.617188 -0.753906 3.171875 -1.234375 C 2.734375 -1.710938 2.390625 -2.296875 2.140625 -2.984375 C 1.890625 -3.671875 1.765625 -4.4375 1.765625 -5.28125 L 1.765625 -13.28125 L 5.421875 -13.28125 L 5.421875 -5.828125 C 5.421875 -5.015625 5.632812 -4.378906 6.0625 -3.921875 C 6.5 -3.472656 7.097656 -3.25 7.859375 -3.25 C 8.671875 -3.25 9.347656 -3.523438 9.890625 -4.078125 C 10.429688 -4.628906 10.703125 -5.347656 10.703125 -6.234375 L 10.703125 -13.28125 L 14.359375 -13.28125 L 14.359375 0 L 10.703125 0 L 10.703125 -1.890625 L 10.5625 -1.890625 C 10.28125 -1.492188 9.945312 -1.132812 9.5625 -0.8125 C 9.238281 -0.539062 8.828125 -0.289062 8.328125 -0.0625 C 7.835938 0.15625 7.273438 0.265625 6.640625 0.265625 Z M 6.640625 0.265625 "/></g></g></g><g fill="#ffffff" fill-opacity="1"><g transform="translate(299.936868, 227.651379)"><g><path d="M 8 0.265625 C 7.019531 0.265625 6.097656 0.0859375 5.234375 -0.265625 C 4.378906 -0.628906 3.628906 -1.125 2.984375 -1.75 C 2.347656 -2.382812 1.847656 -3.117188 1.484375 -3.953125 C 1.128906 -4.785156 0.953125 -5.679688 0.953125 -6.640625 C 0.953125 -7.578125 1.128906 -8.460938 1.484375 -9.296875 C 1.847656 -10.140625 2.347656 -10.878906 2.984375 -11.515625 C 3.628906 -12.148438 4.378906 -12.644531 5.234375 -13 C 6.097656 -13.363281 7.019531 -13.546875 8 -13.546875 C 8.945312 -13.546875 9.765625 -13.40625 10.453125 -13.125 C 11.140625 -12.84375 11.71875 -12.53125 12.1875 -12.1875 C 12.726562 -11.789062 13.179688 -11.34375 13.546875 -10.84375 L 11.25 -8.53125 C 10.988281 -8.84375 10.695312 -9.113281 10.375 -9.34375 C 10.082031 -9.539062 9.738281 -9.722656 9.34375 -9.890625 C 8.945312 -10.066406 8.5 -10.15625 8 -10.15625 C 7.519531 -10.15625 7.070312 -10.066406 6.65625 -9.890625 C 6.25 -9.710938 5.890625 -9.46875 5.578125 -9.15625 C 5.273438 -8.851562 5.035156 -8.484375 4.859375 -8.046875 C 4.691406 -7.609375 4.609375 -7.140625 4.609375 -6.640625 C 4.609375 -6.128906 4.691406 -5.65625 4.859375 -5.21875 C 5.035156 -4.789062 5.273438 -4.421875 5.578125 -4.109375 C 5.890625 -3.804688 6.25 -3.5625 6.65625 -3.375 C 7.070312 -3.195312 7.519531 -3.109375 8 -3.109375 C 8.5 -3.109375 8.945312 -3.191406 9.34375 -3.359375 C 9.738281 -3.535156 10.082031 -3.722656 10.375 -3.921875 C 10.695312 -4.160156 10.988281 -4.429688 11.25 -4.734375 L 13.546875 -2.4375 C 13.179688 -1.9375 12.726562 -1.484375 12.1875 -1.078125 C 11.71875 -0.734375 11.140625 -0.421875 10.453125 -0.140625 C 9.765625 0.128906 8.945312 0.265625 8 0.265625 Z M 8 0.265625 "/></g></g></g><g fill="#ffffff" fill-opacity="1"><g transform="translate(312.669922, 227.651379)"><g><path d="M 7.3125 0.265625 C 5.957031 0.265625 4.875 -0.148438 4.0625 -0.984375 C 3.25 -1.828125 2.84375 -3.035156 2.84375 -4.609375 L 2.84375 -9.625 L 0.546875 -9.625 L 0.546875 -13 L 1.765625 -13 C 2.753906 -13 3.25 -13.539062 3.25 -14.625 L 3.25 -17.0625 L 6.5 -17.0625 L 6.5 -13 L 9.484375 -13 L 9.484375 -9.625 L 6.5 -9.625 L 6.5 -5.140625 C 6.5 -4.535156 6.65625 -4.066406 6.96875 -3.734375 C 7.289062 -3.410156 7.722656 -3.25 8.265625 -3.25 C 8.660156 -3.25 9.007812 -3.296875 9.3125 -3.390625 C 9.476562 -3.421875 9.625 -3.460938 9.75 -3.515625 L 9.75 -0.140625 C 9.53125 -0.0664062 9.296875 0.00390625 9.046875 0.078125 C 8.828125 0.128906 8.566406 0.171875 8.265625 0.203125 C 7.972656 0.242188 7.65625 0.265625 7.3125 0.265625 Z M 7.3125 0.265625 "/></g></g></g><g fill="#ffffff" fill-opacity="1"><g transform="translate(322.151835, 227.651379)"><g><path d="M 6.640625 0.265625 C 5.953125 0.265625 5.3125 0.132812 4.71875 -0.125 C 4.132812 -0.382812 3.617188 -0.753906 3.171875 -1.234375 C 2.734375 -1.710938 2.390625 -2.296875 2.140625 -2.984375 C 1.890625 -3.671875 1.765625 -4.4375 1.765625 -5.28125 L 1.765625 -13.28125 L 5.421875 -13.28125 L 5.421875 -5.828125 C 5.421875 -5.015625 5.632812 -4.378906 6.0625 -3.921875 C 6.5 -3.472656 7.097656 -3.25 7.859375 -3.25 C 8.671875 -3.25 9.347656 -3.523438 9.890625 -4.078125 C 10.429688 -4.628906 10.703125 -5.347656 10.703125 -6.234375 L 10.703125 -13.28125 L 14.359375 -13.28125 L 14.359375 0 L 10.703125 0 L 10.703125 -1.890625 L 10.5625 -1.890625 C 10.28125 -1.492188 9.945312 -1.132812 9.5625 -0.8125 C 9.238281 -0.539062 8.828125 -0.289062 8.328125 -0.0625 C 7.835938 0.15625 7.273438 0.265625 6.640625 0.265625 Z M 6.640625 0.265625 "/></g></g></g><g fill="#ffffff" fill-opacity="1"><g transform="translate(336.916843, 227.651379)"><g><path d="M 1.765625 -13.28125 L 5.421875 -13.28125 L 5.421875 -11.375 L 5.546875 -11.375 C 5.835938 -11.769531 6.175781 -12.132812 6.5625 -12.46875 C 6.882812 -12.738281 7.285156 -12.984375 7.765625 -13.203125 C 8.253906 -13.429688 8.828125 -13.546875 9.484375 -13.546875 L 9.75 -13.546875 L 9.75 -9.625 C 9.664062 -9.632812 9.566406 -9.648438 9.453125 -9.671875 C 9.347656 -9.691406 9.21875 -9.707031 9.0625 -9.71875 C 8.90625 -9.738281 8.726562 -9.75 8.53125 -9.75 C 7.644531 -9.75 6.90625 -9.429688 6.3125 -8.796875 C 5.71875 -8.171875 5.421875 -7.316406 5.421875 -6.234375 L 5.421875 0 L 1.765625 0 Z M 1.765625 -13.28125 "/></g></g></g><g fill="#ffffff" fill-opacity="1"><g transform="translate(345.856896, 227.651379)"><g><path d="M 8 0.265625 C 7.019531 0.265625 6.097656 0.0859375 5.234375 -0.265625 C 4.378906 -0.628906 3.628906 -1.125 2.984375 -1.75 C 2.347656 -2.382812 1.847656 -3.117188 1.484375 -3.953125 C 1.128906 -4.785156 0.953125 -5.679688 0.953125 -6.640625 C 0.953125 -7.578125 1.128906 -8.460938 1.484375 -9.296875 C 1.847656 -10.140625 2.34375 -10.878906 2.96875 -11.515625 C 3.601562 -12.148438 4.335938 -12.644531 5.171875 -13 C 6.003906 -13.363281 6.898438 -13.546875 7.859375 -13.546875 C 8.773438 -13.546875 9.632812 -13.367188 10.4375 -13.015625 C 11.25 -12.660156 11.953125 -12.1875 12.546875 -11.59375 C 13.140625 -11 13.613281 -10.300781 13.96875 -9.5 C 14.320312 -8.695312 14.5 -7.832031 14.5 -6.90625 C 14.5 -6.65625 14.488281 -6.429688 14.46875 -6.234375 C 14.445312 -6.046875 14.425781 -5.882812 14.40625 -5.75 C 14.394531 -5.5625 14.378906 -5.40625 14.359375 -5.28125 L 4.734375 -5.28125 C 4.941406 -4.664062 5.328125 -4.128906 5.890625 -3.671875 C 6.460938 -3.210938 7.253906 -2.984375 8.265625 -2.984375 C 8.835938 -2.984375 9.34375 -3.050781 9.78125 -3.1875 C 10.21875 -3.332031 10.585938 -3.507812 10.890625 -3.71875 C 11.234375 -3.925781 11.53125 -4.175781 11.78125 -4.46875 L 13.6875 -1.890625 C 13.289062 -1.492188 12.800781 -1.132812 12.21875 -0.8125 C 11.726562 -0.539062 11.128906 -0.289062 10.421875 -0.0625 C 9.722656 0.15625 8.914062 0.265625 8 0.265625 Z M 10.703125 -8 C 10.503906 -8.601562 10.144531 -9.132812 9.625 -9.59375 C 9.113281 -10.0625 8.476562 -10.296875 7.71875 -10.296875 C 6.957031 -10.296875 6.320312 -10.0625 5.8125 -9.59375 C 5.300781 -9.132812 4.941406 -8.601562 4.734375 -8 Z M 10.703125 -8 "/></g></g></g><g fill="#ffffff" fill-opacity="1"><g transform="translate(359.944576, 227.651379)"><g><path d="M 3.25 0.265625 C 2.632812 0.265625 2.117188 0.0625 1.703125 -0.34375 C 1.285156 -0.757812 1.078125 -1.273438 1.078125 -1.890625 C 1.078125 -2.503906 1.285156 -3.019531 1.703125 -3.4375 C 2.117188 -3.851562 2.632812 -4.0625 3.25 -4.0625 C 3.863281 -4.0625 4.378906 -3.851562 4.796875 -3.4375 C 5.210938 -3.019531 5.421875 -2.503906 5.421875 -1.890625 C 5.421875 -1.273438 5.210938 -0.757812 4.796875 -0.34375 C 4.378906 0.0625 3.863281 0.265625 3.25 0.265625 Z M 3.25 0.265625 "/></g></g></g></svg>